<svg width="192" height="192" viewBox="0 0 192 192" fill="none" xmlns="http://www.w3.org/2000/svg">
    <path fill-rule="evenodd" clip-rule="evenodd"
        d="M151.99 33.5868C154.411 34.3409 156 36.6182 156 39.1539V103.775C156 131.623 116 156.298 96 165C76 156.298 36 131.623 36 103.775V39.351C36 36.8245 37.5774 34.5534 39.9862 33.7911C56.8897 28.4421 76.0276 27 96.3 27C116.324 27 135.24 28.3689 151.99 33.5868ZM95.9056 37.7692C113.392 37.7692 129.893 38.2909 144.607 42.7517V104.155C144.607 113.14 137.909 123.483 125.963 133.767C116.167 142.2 104.539 149.408 95.6068 153.769C86.6743 149.408 75.0468 142.2 65.2504 133.767C53.3047 123.483 46.6068 113.14 46.6068 104.155V42.9342C61.4706 38.3599 78.1815 37.7692 95.9056 37.7692Z"
        fill="#BDBEBE" />
    <path
        d="M151.99 33.5868L151.693 34.5415L151.99 33.5868ZM96 165L95.601 165.917C95.8555 166.028 96.1446 166.028 96.399 165.917L96 165ZM39.9862 33.7911L40.2879 34.7445L39.9862 33.7911ZM144.607 42.7517H145.607C145.607 42.3112 145.319 41.9225 144.897 41.7947L144.607 42.7517ZM125.963 133.767L126.616 134.525L125.963 133.767ZM95.6068 153.769L95.1681 154.668C95.445 154.803 95.7687 154.803 96.0456 154.668L95.6068 153.769ZM65.2504 133.767L65.9029 133.009H65.9029L65.2504 133.767ZM46.6068 42.9342L46.3127 41.9785C45.8931 42.1076 45.6068 42.4953 45.6068 42.9342H46.6068ZM157 39.1539C157 36.2049 155.149 33.5235 152.288 32.632L151.693 34.5415C153.673 35.1584 155 37.0316 155 39.1539H157ZM157 103.775V39.1539H155V103.775H157ZM96.399 165.917C106.47 161.535 121.561 153.141 134.152 142.326C146.697 131.549 157 118.162 157 103.775H155C155 117.237 145.303 130.111 132.848 140.809C120.44 151.468 105.53 159.763 95.601 164.083L96.399 165.917ZM35 103.775C35 118.162 45.3027 131.549 57.8484 142.326C70.4395 153.141 85.5299 161.535 95.601 165.917L96.399 164.083C86.4702 159.763 71.5605 151.468 59.1516 140.809C46.6974 130.111 37 117.237 37 103.775H35ZM35 39.351V103.775H37V39.351H35ZM39.6845 32.8377C36.8375 33.7387 35 36.4125 35 39.351H37C37 37.2364 38.3174 35.3681 40.2879 34.7445L39.6845 32.8377ZM96.3 26C75.994 26 56.7346 27.4423 39.6845 32.8377L40.2879 34.7445C57.0447 29.4419 76.0613 28 96.3 28V26ZM152.288 32.632C135.392 27.3688 116.355 26 96.3 26V28C116.292 28 135.088 29.3689 151.693 34.5415L152.288 32.632ZM144.897 41.7947C130.025 37.286 113.387 36.7692 95.9056 36.7692V38.7692C113.397 38.7692 129.761 39.2958 144.317 43.7087L144.897 41.7947ZM145.607 104.155V42.7517H143.607V104.155H145.607ZM126.616 134.525C138.61 124.199 145.607 113.599 145.607 104.155H143.607C143.607 112.68 137.208 122.767 125.311 133.009L126.616 134.525ZM96.0456 154.668C105.046 150.273 116.747 143.02 126.616 134.525L125.311 133.009C115.587 141.38 104.033 148.542 95.1681 152.871L96.0456 154.668ZM64.598 134.525C74.4666 143.02 86.1679 150.273 95.1681 154.668L96.0456 152.871C87.1807 148.542 75.6269 141.38 65.9029 133.009L64.598 134.525ZM45.6068 104.155C45.6068 113.599 52.6036 124.199 64.598 134.525L65.9029 133.009C54.0058 122.767 47.6068 112.68 47.6068 104.155H45.6068ZM45.6068 42.9342V104.155H47.6068V42.9342H45.6068ZM95.9056 36.7692C78.1831 36.7692 61.3353 37.3552 46.3127 41.9785L46.901 43.89C61.6058 39.3646 78.1798 38.7692 95.9056 38.7692V36.7692Z"
        fill="#767879" />
    <path fill-rule="evenodd" clip-rule="evenodd"
        d="M156 103.775C156 131.623 116 156.298 96 165V152.979C104.898 148.625 116.373 141.514 126.06 133.229C127.555 131.951 128.968 130.671 130.296 129.393C139.592 120.449 144.726 111.595 144.726 103.775V42.7146L144.726 42.7145C130.004 38.2803 113.495 37.7698 96 37.7692V27.0001L96.3 27C116.324 27 135.24 28.3689 151.99 33.5868C154.411 34.3409 156 36.6182 156 39.1539V103.775Z"
        fill="#767879" />
    <path fill-rule="evenodd" clip-rule="evenodd"
        d="M89 69C89 64.9975 91.0862 62 94 62H98C100.914 62 103 64.9975 103 69V84H89V69ZM108 84V69C108 62.2135 103.617 57 97.9556 57H94.0444C88.3831 57 84 62.2135 84 69V84C78.6002 84 74 88.4855 74 93.9231V116.077C74 118.794 76.1902 121 78.8889 121H113.111C115.81 121 118 118.794 118 116.077V93.9231C118 88.4855 113.4 84 108 84Z"
        fill="#BDBEBE" />
    <path
        d="M103 84V85H104V84H103ZM89 84H88V85H89V84ZM108 84H107V85H108V84ZM84 84V85H85V84H84ZM90 69C90 67.162 90.4803 65.6254 91.2232 64.5773C91.9567 63.5425 92.9238 63 94 63V61C92.1624 61 90.6295 61.9563 89.5915 63.4208C88.5628 64.8722 88 66.8355 88 69H90ZM94 63H98V61H94V63ZM98 63C99.0761 63 100.043 63.5425 100.777 64.5773C101.52 65.6254 102 67.162 102 69H104C104 66.8355 103.437 64.8722 102.408 63.4208C101.37 61.9563 99.8376 61 98 61V63ZM102 69V84H104V69H102ZM103 83H89V85H103V83ZM90 84V69H88V84H90ZM109 84V69H107V84H109ZM109 69C109 61.8339 104.327 56 97.9556 56V58C102.906 58 107 62.5932 107 69H109ZM97.9556 56H94.0444V58H97.9556V56ZM94.0444 56C87.6727 56 83 61.8339 83 69H85C85 62.5932 89.0935 58 94.0444 58V56ZM83 69V84H85V69H83ZM84 83C78.0604 83 73 87.9208 73 93.9231H75C75 89.0502 79.14 85 84 85V83ZM73 93.9231V116.077H75V93.9231H73ZM73 116.077C73 119.34 75.6314 122 78.8889 122V120C76.7491 120 75 118.249 75 116.077H73ZM78.8889 122H113.111V120H78.8889V122ZM113.111 122C116.369 122 119 119.34 119 116.077H117C117 118.249 115.251 120 113.111 120V122ZM119 116.077V93.9231H117V116.077H119ZM119 93.9231C119 87.9208 113.94 83 108 83V85C112.86 85 117 89.0502 117 93.9231H119Z"
        fill="#767879" />
</svg>