<svg width="56" height="392" viewBox="0 0 56 392" fill="none" xmlns="http://www.w3.org/2000/svg">
<path fill-rule="evenodd" clip-rule="evenodd" d="M23.5 14C23.5 19.2467 19.2467 23.5 14 23.5C8.75329 23.5 4.5 19.2467 4.5 14C4.5 8.75329 8.75329 4.5 14 4.5C19.2467 4.5 23.5 8.75329 23.5 14ZM25 14C25 20.0751 20.0751 25 14 25C7.92487 25 3 20.0751 3 14C3 7.92487 7.92487 3 14 3C20.0751 3 25 7.92487 25 14ZM20.5303 10.5303C20.8232 10.2374 20.8232 9.76256 20.5303 9.46967C20.2374 9.17678 19.7626 9.17678 19.4697 9.46967L12 16.9393L8.53033 13.4697C8.23744 13.1768 7.76256 13.1768 7.46967 13.4697C7.17678 13.7626 7.17678 14.2374 7.46967 14.5303L11.4697 18.5303L12 19.0607L12.5303 18.5303L20.5303 10.5303Z" fill="white"/>
<path fill-rule="evenodd" clip-rule="evenodd" d="M14 51.5C19.2467 51.5 23.5 47.2467 23.5 42C23.5 36.7533 19.2467 32.5 14 32.5C8.75329 32.5 4.5 36.7533 4.5 42C4.5 47.2467 8.75329 51.5 14 51.5ZM14 53C20.0751 53 25 48.0751 25 42C25 35.9249 20.0751 31 14 31C7.92487 31 3 35.9249 3 42C3 48.0751 7.92487 53 14 53ZM9.46966 37.4697C9.76256 37.1768 10.2374 37.1768 10.5303 37.4697L14.0001 40.9394L17.4696 37.4699C17.7625 37.177 18.2374 37.177 18.5303 37.4699C18.8232 37.7628 18.8232 38.2377 18.5303 38.5306L15.0608 42L18.5303 45.4694C18.8232 45.7623 18.8232 46.2372 18.5303 46.5301C18.2374 46.823 17.7625 46.823 17.4696 46.5301L14.0001 43.0606L10.5303 46.5303C10.2374 46.8232 9.76256 46.8232 9.46966 46.5303C9.17676 46.2374 9.17676 45.7626 9.46966 45.4697L12.9394 42L9.46966 38.5303C9.17676 38.2374 9.17676 37.7626 9.46966 37.4697Z" fill="white"/>
<path d="M14 59C7.95 59 3 63.95 3 70C3 76.05 7.95 81 14 81C20.05 81 25 76.05 25 70C25 63.95 20.05 59 14 59ZM14 79.625C8.68333 79.625 4.375 75.3167 4.375 70C4.375 64.6833 8.68333 60.375 14 60.375C19.3167 60.375 23.625 64.6833 23.625 70C23.625 75.3167 19.3167 79.625 14 79.625Z" fill="white"/>
<path d="M14.9 68H13.1V75.7H14.9V68Z" fill="white"/>
<path d="M15 64.3H13V66H15V64.3Z" fill="white"/>
<path fill-rule="evenodd" clip-rule="evenodd" d="M8 88C5.79086 88 4 89.7909 4 92V104C4 106.209 5.79086 108 8 108H20C22.2091 108 24 106.209 24 104V92C24 89.7909 22.2091 88 20 88H8ZM20.7071 94.7071C21.0976 94.3166 21.0976 93.6834 20.7071 93.2929C20.3166 92.9024 19.6834 92.9024 19.2929 93.2929L12 100.586L8.70711 97.2929C8.31658 96.9024 7.68342 96.9024 7.29289 97.2929C6.90237 97.6834 6.90237 98.3166 7.29289 98.7071L11.2929 102.707L12 103.414L12.7071 102.707L20.7071 94.7071Z" fill="white"/>
<path fill-rule="evenodd" clip-rule="evenodd" d="M14 135.5C19.2467 135.5 23.5 131.247 23.5 126C23.5 120.753 19.2467 116.5 14 116.5C8.75329 116.5 4.5 120.753 4.5 126C4.5 131.247 8.75329 135.5 14 135.5ZM14 137C20.0751 137 25 132.075 25 126C25 119.925 20.0751 115 14 115C7.92487 115 3 119.925 3 126C3 132.075 7.92487 137 14 137ZM14 120C14.5523 120 15 120.448 15 121V125H19C19.5523 125 20 125.448 20 126C20 126.552 19.5523 127 19 127H15V131C15 131.552 14.5523 132 14 132C13.4477 132 13 131.552 13 131V127H9C8.44772 127 8 126.552 8 126C8 125.448 8.44772 125 9 125H13V121C13 120.448 13.4477 120 14 120Z" fill="white"/>
<path fill-rule="evenodd" clip-rule="evenodd" d="M23.5 154C23.5 159.247 19.2467 163.5 14 163.5C8.75329 163.5 4.5 159.247 4.5 154C4.5 148.753 8.75329 144.5 14 144.5C19.2467 144.5 23.5 148.753 23.5 154ZM25 154C25 160.075 20.0751 165 14 165C7.92487 165 3 160.075 3 154C3 147.925 7.92487 143 14 143C20.0751 143 25 147.925 25 154ZM9 153C8.44772 153 8 153.448 8 154C8 154.552 8.44772 155 9 155H19C19.5523 155 20 154.552 20 154C20 153.448 19.5523 153 19 153H9Z" fill="white"/>
<path fill-rule="evenodd" clip-rule="evenodd" d="M14 191.5C19.2467 191.5 23.5 187.247 23.5 182C23.5 176.753 19.2467 172.5 14 172.5C8.75329 172.5 4.5 176.753 4.5 182C4.5 187.247 8.75329 191.5 14 191.5ZM14 193C20.0751 193 25 188.075 25 182C25 175.925 20.0751 171 14 171C7.92487 171 3 175.925 3 182C3 188.075 7.92487 193 14 193ZM9.46979 177.47C9.76269 177.177 10.2376 177.177 10.5305 177.47L14.0001 180.939L17.4695 177.47C17.7624 177.177 18.2373 177.177 18.5302 177.47C18.8231 177.763 18.8231 178.238 18.5302 178.531L15.0608 182L18.5302 185.469C18.8231 185.762 18.8231 186.237 18.5302 186.53C18.2373 186.823 17.7624 186.823 17.4695 186.53L14.0001 183.061L10.5305 186.53C10.2376 186.823 9.76269 186.823 9.46979 186.53C9.1769 186.237 9.1769 185.763 9.46979 185.47L12.9395 182L9.46979 178.53C9.1769 178.237 9.1769 177.763 9.46979 177.47Z" fill="white"/>
<path fill-rule="evenodd" clip-rule="evenodd" d="M16 200.5H12C11.7239 200.5 11.5 200.724 11.5 201V203H16.5V201C16.5 200.724 16.2761 200.5 16 200.5ZM18 203H23.25C23.6642 203 24 203.336 24 203.75C24 204.164 23.6642 204.5 23.25 204.5H22V217C22 219.209 20.2091 221 18 221H10C7.79086 221 6 219.209 6 217V204.5H4.75C4.33579 204.5 4 204.164 4 203.75C4 203.336 4.33579 203 4.75 203H10V201C10 199.895 10.8954 199 12 199H16C17.1046 199 18 199.895 18 201V203ZM7.5 204.5H20.5V217C20.5 218.381 19.3807 219.5 18 219.5H10C8.61929 219.5 7.5 218.381 7.5 217V204.5ZM14.75 209C14.75 208.586 14.4142 208.25 14 208.25C13.5858 208.25 13.25 208.586 13.25 209V215C13.25 215.414 13.5858 215.75 14 215.75C14.4142 215.75 14.75 215.414 14.75 215V209ZM11 208.25C11.4142 208.25 11.75 208.586 11.75 209V215C11.75 215.414 11.4142 215.75 11 215.75C10.5858 215.75 10.25 215.414 10.25 215V209C10.25 208.586 10.5858 208.25 11 208.25ZM17.75 209C17.75 208.586 17.4142 208.25 17 208.25C16.5858 208.25 16.25 208.586 16.25 209V215C16.25 215.414 16.5858 215.75 17 215.75C17.4142 215.75 17.75 215.414 17.75 215V209Z" fill="white"/>
<path fill-rule="evenodd" clip-rule="evenodd" d="M6.17787 245.875L7.37111 241.5L16.9053 231.966L20.0873 235.148L10.5531 244.682L6.17787 245.875ZM21.148 234.087L22.7784 232.457C22.9736 232.262 22.9736 231.945 22.7784 231.75L20.3035 229.275C20.1082 229.08 19.7917 229.08 19.5964 229.275L17.966 230.905L21.148 234.087ZM23.839 233.518L11.3321 246.025L5.71976 247.555L4.04004 248.013L4.49815 246.334L6.02878 240.721L18.5357 228.214C19.3168 227.433 20.5831 227.433 21.3642 228.214L23.839 230.689C24.6201 231.47 24.6201 232.737 23.839 233.518Z" fill="white"/>
<path fill-rule="evenodd" clip-rule="evenodd" d="M11.6507 268.338L12.3578 266.217L21.2998 257.275C21.495 257.08 21.8116 257.08 22.0069 257.275L22.714 257.982C22.9092 258.177 22.9092 258.494 22.714 258.689L13.772 267.631L11.6507 268.338ZM23.7746 259.75L14.5823 268.942L11.0577 270.117L9.27895 270.71L9.87188 268.931L11.0467 265.407L20.2391 256.214C21.0202 255.433 22.2865 255.433 23.0675 256.214L23.7746 256.921C24.5557 257.702 24.5557 258.969 23.7746 259.75ZM6 256H18L16.5 257.5H6C5.72386 257.5 5.5 257.724 5.5 258V274C5.5 274.276 5.72386 274.5 6 274.5H22C22.2761 274.5 22.5 274.276 22.5 274V263.5L24 262V274C24 275.105 23.1046 276 22 276H6C4.89543 276 4 275.105 4 274V258C4 256.895 4.89543 256 6 256Z" fill="white"/>
<path fill-rule="evenodd" clip-rule="evenodd" d="M17 285.5H6C5.72386 285.5 5.5 285.724 5.5 286V297C5.5 297.276 5.72386 297.5 6 297.5H7V299H6C4.89543 299 4 298.105 4 297V286C4 284.895 4.89543 284 6 284H17C18.1046 284 19 284.895 19 286V287H17.5V286C17.5 285.724 17.2761 285.5 17 285.5ZM11 290.5H22C22.2761 290.5 22.5 290.724 22.5 291V302C22.5 302.276 22.2761 302.5 22 302.5H11C10.7239 302.5 10.5 302.276 10.5 302V291C10.5 290.724 10.7239 290.5 11 290.5ZM9 291C9 289.895 9.89543 289 11 289H22C23.1046 289 24 289.895 24 291V302C24 303.105 23.1046 304 22 304H11C9.89543 304 9 303.105 9 302V291ZM16.5 292C16.7761 292 17 292.224 17 292.5V296H20.5C20.7761 296 21 296.224 21 296.5C21 296.776 20.7761 297 20.5 297H17V300.5C17 300.776 16.7761 301 16.5 301C16.2239 301 16 300.776 16 300.5V297H12.5C12.2239 297 12 296.776 12 296.5C12 296.224 12.2239 296 12.5 296H16V292.5C16 292.224 16.2239 292 16.5 292Z" fill="white"/>
<path fill-rule="evenodd" clip-rule="evenodd" d="M13.4697 326.03L14 326.561L14.5303 326.03L17.5303 323.03C17.8232 322.738 17.8232 322.263 17.5303 321.97C17.2374 321.677 16.7626 321.677 16.4697 321.97L14.75 323.689L14.75 311.5C14.75 311.086 14.4142 310.75 14 310.75C13.5858 310.75 13.25 311.086 13.25 311.5L13.25 323.689L11.5303 321.97C11.2374 321.677 10.7626 321.677 10.4697 321.97C10.1768 322.263 10.1768 322.738 10.4697 323.03L13.4697 326.03Z" fill="white"/>
<path d="M6.75 325.25V329.25C6.75 330.355 7.64543 331.25 8.75 331.25H19.25C20.3546 331.25 21.25 330.355 21.25 329.25V325.25" stroke="white" stroke-width="1.5" stroke-linecap="round"/>
<path d="M9.33025 346.042L9.3666 346.037L9.40224 346.028C9.91402 345.9 10.4091 345.533 10.6709 345.019L12.7073 341.26C12.9805 340.77 13.4483 340.47 14.0148 340.47C14.6101 340.47 15.1418 340.796 15.401 341.26L17.4375 345.02C17.7398 345.612 18.3064 345.85 18.706 345.949L18.7273 345.955L18.7488 345.959L22.9145 346.745L22.9499 346.751L22.9857 346.755C23.5265 346.804 23.9896 347.205 24.143 347.717L24.1526 347.749L24.165 347.78C24.3596 348.266 24.2098 348.873 23.8173 349.216L23.8063 349.226L23.7958 349.236L20.8876 351.987L20.8801 351.994L20.8727 352.001C20.5174 352.356 20.2165 352.907 20.3501 353.606L20.9725 357.496C21.024 358.138 20.7849 358.688 20.3723 358.972C20.0764 359.146 19.7432 359.248 19.4381 359.248C19.1608 359.248 18.9613 359.196 18.7517 359.092L18.7518 359.092L18.7409 359.086L14.8154 357.202C14.4982 357.046 14.1877 357.047 14.0387 357.047C14.0302 357.047 14.0222 357.048 14.0148 357.048C14.0074 357.048 13.9994 357.047 13.9909 357.047C13.8425 357.047 13.5334 357.046 13.2174 357.201L9.21538 359.084L9.20731 359.088L9.19932 359.092C8.97664 359.203 8.77637 359.248 8.59155 359.248C8.19307 359.248 7.92394 359.18 7.72391 359.02L7.69849 358.999L7.67141 358.981C7.24004 358.694 7.00758 358.132 7.0567 357.577L7.67772 353.618C7.74899 353.294 7.69861 352.978 7.60894 352.724C7.51452 352.456 7.35776 352.202 7.15693 352.001L7.14957 351.994L7.142 351.987L4.24206 349.243C3.81671 348.814 3.65731 348.246 3.80243 347.662C4.03903 347.108 4.52347 346.723 5.04395 346.676L5.06502 346.674L5.08596 346.671L9.33025 346.042Z" stroke="white" stroke-width="1.5"/>
<path d="M14.0148 367.72C13.1502 367.72 12.4429 368.192 12.0499 368.899L10.0063 372.672C9.84912 372.986 9.53473 373.222 9.22034 373.3L4.97604 373.929C4.11147 374.008 3.40408 374.637 3.08969 375.423C2.8539 376.287 3.08969 377.152 3.71848 377.781L6.6266 380.531C6.8624 380.767 7.01959 381.16 6.941 381.475L6.31221 385.483C6.23361 386.269 6.54801 387.134 7.25539 387.605C7.64838 387.92 8.11997 387.998 8.59155 387.998C8.90595 387.998 9.22034 387.92 9.53473 387.762L13.5432 385.876C13.7004 385.798 13.8576 385.798 14.0148 385.798C14.172 385.798 14.3292 385.798 14.4864 385.876L18.4163 387.762C18.7307 387.92 19.0451 387.998 19.4381 387.998C19.9097 387.998 20.3813 387.841 20.7743 387.605C21.4816 387.134 21.796 386.269 21.7174 385.405L21.0886 381.475C21.01 381.082 21.1672 380.767 21.403 380.531L24.3112 377.781C24.9399 377.23 25.1757 376.287 24.8613 375.501C24.6256 374.715 23.9182 374.086 23.0536 374.008L18.8879 373.222C18.5735 373.143 18.2591 372.986 18.1019 372.672L16.0584 368.899C15.6654 368.192 14.8794 367.72 14.0148 367.72Z" fill="white"/>
</svg>
