<?xml version="1.0" encoding="utf-8"?>
<!-- Generator: Adobe Illustrator 24.0.3, SVG Export Plug-In . SVG Version: 6.00 Build 0)  -->
<svg version="1.1"
	 id="svg4" inkscape:version="0.92.4 (5da689c313, 2019-01-14)" sodipodi:docname="voice.svg" xmlns:cc="http://creativecommons.org/ns#" xmlns:dc="http://purl.org/dc/elements/1.1/" xmlns:inkscape="http://www.inkscape.org/namespaces/inkscape" xmlns:rdf="http://www.w3.org/1999/02/22-rdf-syntax-ns#" xmlns:sodipodi="http://sodipodi.sourceforge.net/DTD/sodipodi-0.dtd" xmlns:svg="http://www.w3.org/2000/svg"
	 xmlns="http://www.w3.org/2000/svg" xmlns:xlink="http://www.w3.org/1999/xlink" x="0px" y="0px" viewBox="0 0 56 168"
	 width="56px" height="168px" style="enable-background:new 0 0 56 168;" xml:space="preserve" preserveAspectRatio="none">
<style type="text/css">
	.st0{fill:#FFFFFF;}
</style>
<sodipodi:namedview  bordercolor="#666666" borderopacity="1" gridtolerance="10" guidetolerance="10" id="namedview6" inkscape:current-layer="svg4" inkscape:cx="9.7684013" inkscape:cy="151.76443" inkscape:pagecheckerboard="true" inkscape:pageopacity="0" inkscape:pageshadow="2" inkscape:window-height="991" inkscape:window-maximized="0" inkscape:window-width="1745" inkscape:window-x="544" inkscape:window-y="1440" inkscape:zoom="7.375" objecttolerance="10" pagecolor="#ffffff" showgrid="false">
	</sodipodi:namedview>
<g id="path4526_1_">
	<path class="st0" d="M22.6,19.1c-0.2,0-0.4,0-0.6-0.1l-3.8-1.4c-0.6-0.2-1-0.8-1-1.6l0.2-2c-2.3-0.7-4.7-0.7-6.9,0l0.2,2
		c0.1,0.6-0.4,1.3-1,1.6l-3.8,1.6c-0.7,0.2-1.4,0-1.8-0.6l-1.9-3C1.8,15,2,14.3,2.4,13.7c6.3-6.3,16.6-6.3,23.1,0
		c0.5,0.5,0.6,1.3,0.2,1.9l-1.9,3C23.5,18.8,23,19.1,22.6,19.1z M13.9,11.9c1.6,0,3,0.2,4.4,0.8l0.5,0.2L18.4,16l3.8,1.7l2-3.1v-0.1
		c-5.6-5.9-15.1-5.9-20.9,0l1.9,3.1l4-1.4L9,13l0.5-0.2C10.9,12.3,12.5,11.9,13.9,11.9z"/>
</g>
<g id="path4526_2_">
	<path class="st0" d="M7,51.3c-0.7,0-1.3-0.5-1.4-1.2l-0.8-3.5C4.6,45.9,5,45.2,5.6,45l3.7-1.6c0.6-0.2,1.3-0.1,1.8,0.5l1.3,1.6
		c2-1.1,3.8-2.8,4.9-4.9l-1.6-1.4c-0.5-0.5-0.7-1.2-0.5-1.8l1.6-3.7c0.2-0.7,1.1-1.1,1.8-0.8l3.5,0.8c0.7,0.1,1.2,0.7,1.2,1.4
		C23.3,44,16,51.3,7,51.3z M10,44.6l-3.8,1.6l0.7,3.6c0,0,0,0.1,0.1,0.1c8.3,0,14.8-6.7,14.8-14.8l-3.6-1l-1.7,3.8l2.5,2.2l-0.2,0.5
		c-1.3,2.8-3.6,5-6.3,6.3L12,47.1L10,44.6z"/>
</g>
<g>
	<g id="path847">
		<path class="st0" d="M20.3,81.8c-0.2,0-0.4-0.1-0.6-0.2c-0.2-0.4-0.2-0.7,0.1-1c3-2.3,4.7-6.2,4.7-10.5s-1.7-8.3-4.7-10.7
			c-0.4-0.2-0.4-0.7-0.1-1c0.2-0.4,0.7-0.4,1-0.1c3.3,2.7,5.2,7,5.2,11.7s-1.9,9.1-5.3,11.6C20.6,81.8,20.4,81.8,20.3,81.8z
			 M18.2,78.1c-0.2,0-0.5-0.1-0.6-0.2c-0.2-0.4-0.1-0.7,0.1-1c1.9-1.4,3.1-4.1,3.1-6.8s-1.2-5.3-3.1-6.8c-0.4-0.2-0.4-0.7-0.1-1
			c0.2-0.4,0.7-0.4,1-0.1c2.3,1.8,3.6,4.7,3.6,7.9s-1.3,6.1-3.6,7.9C18.4,78,18.3,78.1,18.2,78.1z M16,74.3c-0.2,0-0.5-0.1-0.6-0.4
			c-0.2-0.4-0.1-0.7,0.2-1c1-0.6,1.4-1.8,1.4-3s-0.6-2.4-1.4-3c-0.4-0.2-0.4-0.6-0.2-1s0.6-0.4,1-0.2c1.3,0.8,2.2,2.5,2.2,4.2
			s-0.8,3.4-2.2,4.2C16.2,74.3,16.1,74.3,16,74.3z"/>
	</g>
	<g>
		<path class="st0" d="M11.8,79.8c-0.5,0-0.8-0.2-1.2-0.6l-3.2-4H3.7c-1,0-1.7-0.8-1.7-1.8v-6.8c0-1,0.7-1.8,1.7-1.8h3.7l3.2-4
			c0.5-0.5,1.1-0.7,1.7-0.5c0.7,0.2,1.1,1,1.1,1.8V78c0,0.8-0.5,1.4-1.1,1.8C12.2,79.7,11.9,79.8,11.8,79.8z M3.7,66.3
			c-0.1,0-0.2,0.1-0.2,0.5v6.7c0,0.2,0.1,0.5,0.2,0.5H8l3.7,4.4c0.1,0.1,0.1,0.1,0.1,0.1c0.1,0,0.2-0.2,0.2-0.4V62.2
			c0-0.2-0.1-0.4-0.2-0.4c0,0-0.1,0-0.1,0.1l0,0L8,66.3H3.7z"/>
	</g>
</g>
<g>
	<g id="path873">
		<path class="st0" d="M15.1,133.4H13c-4.1-0.6-7.1-4.1-7.1-8.3v-1.7c0-0.4,0.4-0.7,0.7-0.7c0.4,0,0.7,0.4,0.7,0.7v1.7
			c0,3.5,2.5,6.5,5.7,6.9h2c3.2-0.5,5.6-3.2,5.6-6.6v-2c0-0.4,0.4-0.7,0.7-0.7c0.4,0,0.7,0.4,0.7,0.7v2
			C22.1,129.4,19.1,132.9,15.1,133.4z"/>
	</g>
	<g>
		<path class="st0" d="M14.1,130.1c-2.6,0-4.7-2.2-4.7-4.7v-6.7c0-2.6,2.2-4.7,4.7-4.7c2.6,0,4.7,2.2,4.7,4.7v6.7
			C18.7,128,16.7,130.1,14.1,130.1z M14.1,115.4c-1.8,0-3.4,1.4-3.4,3.4v6.7c0,1.8,1.4,3.4,3.4,3.4c1.8,0,3.4-1.4,3.4-3.4v-6.7
			C17.4,116.8,15.9,115.4,14.1,115.4z"/>
	</g>
	<g>
		<path class="st0" d="M14.1,137.4c-0.4,0-0.7-0.4-0.7-0.7v-4.1c0-0.4,0.4-0.7,0.7-0.7s0.7,0.4,0.7,0.7v4.1
			C14.8,137.2,14.4,137.4,14.1,137.4z"/>
	</g>
	<g>
		<path class="st0" d="M18.1,137.9H10c-0.4,0-0.7-0.4-0.7-0.7c0-0.4,0.4-0.7,0.7-0.7h8c0.4,0,0.7,0.4,0.7,0.7
			C18.7,137.6,18.5,137.9,18.1,137.9z"/>
	</g>
</g>
<g>
	<g>
		<g id="path873_2_">
			<path class="st0" d="M15.1,161.4h-2.2c-4.1-0.6-7.1-4.1-7.1-8.3v-1.7c0-0.4,0.4-0.7,0.7-0.7c0.4,0,0.7,0.4,0.7,0.7v1.7
				c0,3.5,2.5,6.5,5.7,6.9H15c3.2-0.5,5.6-3.2,5.6-6.6v-2c0-0.4,0.4-0.7,0.7-0.7c0.4,0,0.7,0.4,0.7,0.7v2
				C22,157.4,19,160.9,15.1,161.4z"/>
		</g>
		<g>
			<path class="st0" d="M13.9,158.2c-2.6,0-4.7-2.2-4.7-4.7v-6.7c0-2.6,2.2-4.7,4.7-4.7c2.6,0,4.7,2.2,4.7,4.7v6.7
				C18.7,156,16.5,158.2,13.9,158.2z M13.9,143.4c-1.8,0-3.4,1.4-3.4,3.4v6.7c0,1.8,1.4,3.4,3.4,3.4c1.8,0,3.4-1.4,3.4-3.4v-6.7
				C17.2,144.9,15.8,143.4,13.9,143.4z"/>
		</g>
		<g>
			<path class="st0" d="M13.9,165.5c-0.4,0-0.7-0.4-0.7-0.7v-4.1c0-0.4,0.4-0.7,0.7-0.7s0.7,0.4,0.7,0.7v4.1
				C14.6,165.2,14.4,165.5,13.9,165.5z"/>
		</g>
		<g>
			<path class="st0" d="M18,165.9h-8c-0.4,0-0.7-0.4-0.7-0.7c0-0.4,0.4-0.7,0.7-0.7h8c0.4,0,0.7,0.4,0.7,0.7
				C18.7,165.6,18.3,165.9,18,165.9z"/>
		</g>
	</g>
	<g>
		<path class="st0" d="M23.6,162.6c-0.2,0-0.4-0.1-0.5-0.2L3.9,143.2c-0.2-0.2-0.2-0.7,0-1c0.2-0.2,0.7-0.2,1,0l19.2,19.2
			c0.2,0.2,0.2,0.7,0,1C23.9,162.6,23.7,162.6,23.6,162.6z"/>
	</g>
</g>
<g>
	<g>
		<g>
			<path class="st0" d="M23.7,102.1c-0.2,0-0.4-0.1-0.5-0.2L16.1,95c-0.2-0.2-0.2-0.7,0-1c0.2-0.2,0.7-0.2,1,0l7.1,7.1
				c0.2,0.2,0.2,0.7,0,1C24,102.1,23.9,102.1,23.7,102.1z"/>
		</g>
		<g>
			<path class="st0" d="M16.7,102.1c-0.2,0-0.4-0.1-0.5-0.2c-0.2-0.2-0.2-0.7,0-1l7.1-7.1c0.2-0.2,0.7-0.2,1,0c0.2,0.2,0.2,0.7,0,1
				l-7.1,7.1C17.1,102.1,16.8,102.1,16.7,102.1z"/>
		</g>
	</g>
	<g>
		<path class="st0" d="M11.8,107.6c-0.5,0-0.8-0.2-1.2-0.6l-3.2-4H3.7c-1,0-1.7-0.8-1.7-1.8v-6.7c0-1,0.7-1.8,1.7-1.8h3.7l3.2-4
			c0.5-0.5,1.1-0.7,1.7-0.5c0.7,0.2,1.1,1,1.1,1.8v15.8c0,0.8-0.5,1.4-1.1,1.8C12.2,107.6,11.9,107.6,11.8,107.6z M3.7,94.1
			c-0.1,0-0.2,0.1-0.2,0.5v6.7c0,0.2,0.1,0.5,0.2,0.5H8l3.7,4.4c0.1,0.1,0.1,0.1,0.1,0.1c0.1,0,0.2-0.2,0.2-0.4V90
			c0-0.2-0.1-0.4-0.2-0.4c0,0-0.1,0-0.1,0.1l0,0L8,94.2L3.7,94.1L3.7,94.1z"/>
	</g>
</g>
<path class="st0" d="M53.5,13.5c-6.3-6.3-16.6-6.3-23.1,0c-0.5,0.5-0.6,1.3-0.2,1.9l1.9,3c0.4,0.6,1.2,0.8,1.8,0.6l3.8-1.6
	c0.6-0.2,1-0.8,1-1.6L38.6,14c2.3-0.7,4.7-0.7,6.9,0l-0.2,2c-0.1,0.7,0.4,1.3,1,1.6l3.8,1.6c0.2,0.1,0.4,0.1,0.6,0.1
	c0.5,0,1-0.2,1.3-0.7l1.9-3C54.1,14.8,54,14.1,53.5,13.5z"/>
<path class="st0" d="M50.1,33.6l-3.5-0.8c-0.7-0.1-1.4,0.2-1.8,0.8l-1.6,3.7c-0.2,0.6-0.1,1.3,0.5,1.8l1.6,1.3
	c-1.1,2-2.8,3.8-4.9,4.9l-1.3-1.6c-0.5-0.5-1.2-0.7-1.8-0.5l-3.7,1.7c-0.7,0.2-1.1,1.1-0.8,1.7l0.8,3.5c0.1,0.7,0.7,1.2,1.4,1.2
	c9,0,16.3-7.3,16.3-16.3C51.3,34.4,50.8,33.8,50.1,33.6z"/>
<path class="st0" d="M44.2,65.8c-0.4-0.2-0.7-0.1-1,0.2s-0.1,0.7,0.2,1c1,0.6,1.4,1.8,1.4,3s-0.6,2.4-1.4,3c-0.4,0.2-0.4,0.6-0.2,1
	c0.1,0.2,0.4,0.4,0.6,0.4c0.1,0,0.2,0,0.4-0.1c1.3-0.8,2.2-2.5,2.2-4.2C46.4,68.3,45.6,66.8,44.2,65.8z M46.5,62.1
	c-0.4-0.2-0.7-0.1-1,0.1c-0.2,0.4-0.1,0.7,0.1,1c1.9,1.4,3.1,4.1,3.1,6.8c0,2.8-1.2,5.3-3.1,6.8c-0.4,0.2-0.4,0.7-0.1,1
	c0.1,0.2,0.4,0.2,0.6,0.2c0.1,0,0.4,0,0.5-0.1c2.3-1.8,3.6-4.7,3.6-7.9S48.8,63.9,46.5,62.1z M48.7,58.4c-0.4-0.2-0.7-0.2-1,0.1
	s-0.2,0.7,0.1,1c3,2.3,4.7,6.2,4.7,10.5s-1.8,8.1-4.7,10.5c-0.4,0.2-0.4,0.7-0.1,1c0.1,0.1,0.4,0.2,0.6,0.2c0.1,0,0.4,0,0.5-0.1
	c3.4-2.6,5.3-6.9,5.3-11.6C53.9,65.4,51.9,61,48.7,58.4z M40.3,60.4c-0.6-0.2-1.3,0-1.7,0.5l-3.2,4h-3.7c-1,0-1.7,0.8-1.7,1.8v6.7
	c0,1,0.7,1.8,1.7,1.8h3.7l3.2,4c0.4,0.4,0.7,0.6,1.2,0.6c0.1,0,0.4,0,0.5-0.1c0.7-0.2,1.1-1,1.1-1.8V62.2
	C41.4,61.4,41,60.7,40.3,60.4z"/>
<path class="st0" d="M49.3,122.7c-0.4,0-0.7,0.4-0.7,0.7v2c0,3.4-2.5,6.1-5.6,6.6h-1l0,0l0,0h-0.8c-3.2-0.5-5.7-3.5-5.7-6.9v-1.7
	c0-0.4-0.4-0.7-0.7-0.7s-0.7,0.4-0.7,0.7v1.7c0,4.2,3,7.8,7.1,8.3h0.4v3.1H38c-0.4,0-0.7,0.4-0.7,0.7s0.4,0.7,0.7,0.7h8
	c0.4,0,0.7-0.4,0.7-0.7s-0.4-0.7-0.7-0.7h-3.4v-3.1H43c4-0.6,6.9-4,6.9-8v-2C50,123.1,49.8,122.7,49.3,122.7z M42,130.1
	c2.6,0,4.7-2.2,4.7-4.7v-6.7c0-2.6-2.2-4.7-4.7-4.7c-2.6-0.1-4.8,2-4.8,4.7v6.7C37.2,128,39.4,130.1,42,130.1z"/>
<path class="st0" d="M52.1,161.5l-3.5-3.5c0.8-1.3,1.4-2.9,1.4-4.5v-2c0-0.4-0.4-0.7-0.7-0.7c-0.4,0-0.7,0.4-0.7,0.7v2
	c0,1.3-0.4,2.5-1.1,3.5l-1.4-1.4c0.4-0.6,0.5-1.3,0.5-2.2v-6.5c0-2.6-2.2-4.7-4.7-4.7s-4.7,2-4.7,4.5l-4.4-4.4c-0.2-0.2-0.7-0.2-1,0
	c-0.2,0.2-0.2,0.7,0,1l5.4,5.4v4.8c0,2.6,2.2,4.7,4.7,4.7c1.3,0,2.5-0.6,3.4-1.4l1.3,1.3c-1,1.1-2.3,1.8-3.7,1.9h-1l0,0l0,0h-0.8
	c-3.2-0.5-5.7-3.5-5.7-6.9v-1.7c0-0.4-0.4-0.7-0.7-0.7s-0.7,0.4-0.7,0.7v1.7c0,4.2,3,7.8,7.1,8.3h0.4v3.1H38c-0.4,0-0.7,0.4-0.7,0.7
	c0,0.4,0.4,0.7,0.7,0.7h8c0.4,0,0.7-0.4,0.7-0.7c0-0.4-0.4-0.7-0.7-0.7h-3.4v-3.1H43c1.8-0.2,3.5-1.1,4.7-2.4l3.4,3.4
	c0.1,0.1,0.4,0.2,0.5,0.2c0.2,0,0.4-0.1,0.5-0.2C52.4,162.2,52.4,161.9,52.1,161.5z"/>
<g>
	<path class="st0" d="M49.2,98l3-3c0.2-0.2,0.2-0.7,0-1c-0.2-0.2-0.7-0.2-1,0l-3,3l-3-3c-0.2-0.2-0.7-0.2-1,0c-0.2,0.2-0.2,0.7,0,1
		l3,3l-3,3c-0.2,0.2-0.2,0.7,0,1c0.1,0.1,0.4,0.2,0.5,0.2c0.2,0,0.4-0.1,0.5-0.2l3-3l3,3c0.1,0.1,0.4,0.2,0.5,0.2
		c0.2,0,0.4-0.1,0.5-0.2c0.2-0.2,0.2-0.7,0-1L49.2,98z M40.3,88.4c-0.6-0.2-1.3,0-1.7,0.5l0,0l-3.2,4h-3.7c-1,0-1.7,0.8-1.7,1.8v6.7
		c0,1,0.7,1.8,1.7,1.8h3.7l3.2,4c0.4,0.4,0.7,0.6,1.2,0.6c0.1,0,0.4,0,0.5-0.1c0.7-0.2,1.1-1,1.1-1.8V90.1
		C41.4,89.2,41,88.7,40.3,88.4z"/>
</g>
</svg>
