<svg width="56" height="196" viewBox="0 0 56 196" fill="none" xmlns="http://www.w3.org/2000/svg">
<path d="M3 23.5346V4.46538C3 2.9255 4.66722 1.96328 6.00055 2.73365L25.5 14L6.00056 25.2663C4.66722 26.0367 3 25.0745 3 23.5346Z" fill="white"/>
<path fill-rule="evenodd" clip-rule="evenodd" d="M23.5 42C23.5 47.2467 19.2467 51.5 14 51.5C8.75329 51.5 4.5 47.2467 4.5 42C4.5 36.7533 8.75329 32.5 14 32.5C19.2467 32.5 23.5 36.7533 23.5 42ZM25 42C25 48.0751 20.0751 53 14 53C7.92487 53 3 48.0751 3 42C3 35.9249 7.92487 31 14 31C20.0751 31 25 35.9249 25 42ZM15.5 42C15.5 42.8284 14.8284 43.5 14 43.5C13.1716 43.5 12.5 42.8284 12.5 42C12.5 41.1716 13.1716 40.5 14 40.5C14.8284 40.5 15.5 41.1716 15.5 42ZM18.5 43.5C19.3284 43.5 20 42.8284 20 42C20 41.1716 19.3284 40.5 18.5 40.5C17.6716 40.5 17 41.1716 17 42C17 42.8284 17.6716 43.5 18.5 43.5ZM11 42C11 42.8284 10.3284 43.5 9.5 43.5C8.67157 43.5 8 42.8284 8 42C8 41.1716 8.67157 40.5 9.5 40.5C10.3284 40.5 11 41.1716 11 42Z" fill="#393B3D"/>
<path fill-rule="evenodd" clip-rule="evenodd" d="M15.8 59.7C15.8 60.0727 15.6801 60.4174 15.4767 60.6976C16.6904 60.8877 17.8062 61.3551 18.7 62.1C20.3 63.4 21.3 65.4 21.4 67.5L21.5 71.3V71.4C23.1 72 24.2 73.5 24.2 75.3V75.4V75.5V75.8C23.8091 78.3413 19.0235 79.0674 16.0996 79.2857C16.1607 79.4766 16.2 79.6785 16.2 79.9C16.2 81 15.2 82 14.1 82C13 82 12 81.1 12 79.9C12 79.6831 12.0188 79.4851 12.0646 79.2977C8.96058 79.0946 3.80005 78.389 3.80005 75.5V75.2C3.80005 73.4 5.00005 71.9 6.50005 71.4V71.3L6.70005 67.4C6.80005 65.7 7.40005 64.2 8.50005 62.9C9.53128 61.7101 11.003 60.8978 12.6656 60.6128C12.4975 60.3491 12.4 60.0359 12.4 59.7C12.4 58.7611 13.1611 58 14.1 58C15.0389 58 15.8 58.7611 15.8 59.7ZM14 62H14.3C15.6 62 16.9 62.4 17.9 63.2C19.2 64.2 20 65.8 20.1 67.5L20.2 71.3C18.9 71.7 17 72 14.1 72C11.3 72 9.40005 71.7 8.10005 71.3L8.30005 67.5C8.30005 66.1 8.80005 64.8 9.70005 63.9C10.8 62.6 12.4 62 14 62ZM7.60005 72.6C9.20005 73.1 11.3 73.4 14.1 73.4C16.9 73.4 19.1 73.1 20.7 72.7C22 72.9 22.9 74 22.9 75.4V75.7C22.7 76.8 19.9 77.7 16 77.9H12.2C8.30005 77.7 5.30005 76.7 5.30005 75.6V75.4C5.30005 73.9 6.30005 72.8 7.60005 72.6Z" fill="#393B3D"/>
<path fill-rule="evenodd" clip-rule="evenodd" d="M15.8 87.7C15.8 87.9996 15.7225 88.2811 15.5865 88.5255C16.6009 88.7263 17.5506 89.1629 18.4 89.8C19.9 91 20.8 92.8 20.9 94.8L21.1 99.1C19.7 99.5 17.4 99.9 14.1 99.9C10.8 99.9 8.60002 99.5 7.10002 99.1L7.30002 94.7C7.30002 93.1 7.90002 91.7 8.90002 90.6C9.88202 89.467 11.2064 88.7904 12.6145 88.5272C12.4779 88.2823 12.4 88.0003 12.4 87.7C12.4 86.7611 13.1611 86 14.1 86C15.0389 86 15.8 86.7611 15.8 87.7ZM16.2 106.7C20.6 106.4 24 105.4 24.1 104.1V103.8C24.1 102.3 23 101 21.5 100.7C19.7 101.2 17.2 101.6 13.9 101.6C10.7 101.6 8.20002 101.2 6.40002 100.7C5.10002 101 3.90002 102.2 3.90002 103.8V104.1C3.90002 105.4 7.30002 106.5 11.9 106.8L12.1863 106.793C12.0306 107.092 11.9 107.496 11.9 107.9C11.9 109 12.9 110 14.1 110C15.3 110 16.2 109 16.2 107.9C16.2 107.445 16.0344 107.073 15.8539 106.708L16.2 106.7Z" fill="#393B3D"/>
<path fill-rule="evenodd" clip-rule="evenodd" d="M13.508 115.513C17.1645 115.331 20.4823 117.027 22.5 119.805V116.25C22.5 115.836 22.8358 115.5 23.25 115.5C23.6642 115.5 24 115.836 24 116.25V121.25V122H23.25H18.25C17.8358 122 17.5 121.664 17.5 121.25C17.5 120.836 17.8358 120.5 18.25 120.5H21.1475C19.408 118.231 16.6355 116.859 13.5829 117.012C10.2275 117.179 7.45248 119.105 5.93113 121.894C5.73278 122.258 5.2772 122.392 4.91357 122.194C4.54993 121.995 4.41594 121.54 4.61428 121.176C6.36566 117.965 9.59067 115.709 13.508 115.513ZM4.75 130H4V130.75V135.75C4 136.164 4.33579 136.5 4.75 136.5C5.16421 136.5 5.5 136.164 5.5 135.75V132.185C7.51774 134.962 10.8355 136.659 14.492 136.476C18.3983 136.281 21.7274 134.033 23.394 130.798C23.5837 130.43 23.439 129.978 23.0708 129.788C22.7025 129.598 22.2503 129.743 22.0606 130.111C20.6363 132.876 17.7836 134.81 14.4171 134.978C11.3691 135.131 8.60031 133.763 6.86035 131.5H9.75C10.1642 131.5 10.5 131.164 10.5 130.75C10.5 130.336 10.1642 130 9.75 130H4.75Z" fill="#393B3D"/>
<path fill-rule="evenodd" clip-rule="evenodd" d="M12 143C7.05 143 3 147.05 3 152C3 156.95 7.05 161 12 161C13.9366 161 15.7354 160.38 17.2078 159.329L17.5227 159.644L22.4393 164.561C23.0251 165.146 23.9749 165.146 24.5606 164.561C25.1464 163.975 25.1465 163.025 24.5607 162.439L19.644 157.523L19.3291 157.208C20.3802 155.735 21 153.936 21 152C21 147.05 16.95 143 12 143ZM19.5 152C19.5 156.142 16.1421 159.5 12 159.5C7.85786 159.5 4.5 156.142 4.5 152C4.5 147.858 7.85786 144.5 12 144.5C16.1421 144.5 19.5 147.858 19.5 152Z" fill="#393B3D"/>
<path fill-rule="evenodd" clip-rule="evenodd" d="M18 182C18 184.209 16.2091 186 14 186C11.7909 186 10 184.209 10 182C10 179.791 11.7909 178 14 178C16.2091 178 18 179.791 18 182ZM16.5 182C16.5 183.381 15.3807 184.5 14 184.5C12.6193 184.5 11.5 183.381 11.5 182C11.5 180.619 12.6193 179.5 14 179.5C15.3807 179.5 16.5 180.619 16.5 182Z" fill="#393B3D"/>
<path fill-rule="evenodd" clip-rule="evenodd" d="M22.6872 187.452C22.4254 186.859 22.211 186.257 22.052 185.639C22.0517 185.631 22.0514 185.611 22.0554 185.578C22.0628 185.519 22.0817 185.443 22.1153 185.362C22.1488 185.281 22.1892 185.214 22.2259 185.167C22.2464 185.14 22.2609 185.126 22.2668 185.121C22.8149 184.797 23.3922 184.523 23.9969 184.289L24.8634 183.954L24.95 183.03C25.013 182.357 25.0191 181.668 24.9533 180.971L24.866 180.047L23.9998 179.712C23.3949 179.479 22.8164 179.204 22.2668 178.879C22.2609 178.874 22.2464 178.86 22.2259 178.833C22.1892 178.786 22.1488 178.719 22.1153 178.638C22.0817 178.557 22.0628 178.481 22.0554 178.422C22.0514 178.39 22.0517 178.37 22.052 178.362C22.2118 177.742 22.4263 177.139 22.6887 176.544L23.0627 175.696L22.4718 174.982C22.0263 174.444 21.535 173.96 21.0132 173.529L20.2989 172.938L19.4513 173.313C18.8596 173.574 18.2566 173.789 17.639 173.948C17.6308 173.948 17.6107 173.949 17.5779 173.944C17.5186 173.937 17.4427 173.918 17.3617 173.885C17.2807 173.851 17.2136 173.811 17.1665 173.774C17.1401 173.754 17.1261 173.739 17.1208 173.733C16.7963 173.185 16.5222 172.608 16.2887 172.003L15.9546 171.138L15.031 171.05C14.3549 170.986 13.6657 170.982 12.971 171.047L12.0481 171.135L11.7134 171.999C11.4792 172.604 11.2045 173.183 10.8798 173.733C10.8743 173.739 10.8601 173.753 10.8337 173.774C10.7864 173.811 10.7192 173.851 10.6381 173.885C10.557 173.918 10.4811 173.937 10.4219 173.944C10.3895 173.949 10.3696 173.948 10.3614 173.948C9.74138 173.788 9.13745 173.574 8.54388 173.311L7.69578 172.937L6.98159 173.528C6.44274 173.974 5.9603 174.465 5.52936 174.986L4.93772 175.7L5.31263 176.549C5.57462 177.142 5.78944 177.745 5.94755 178.361C5.94792 178.369 5.94825 178.389 5.94415 178.422C5.93676 178.481 5.91787 178.557 5.88431 178.638C5.85076 178.719 5.81042 178.786 5.77371 178.833C5.7532 178.86 5.73869 178.874 5.73276 178.879C5.18463 179.204 4.60724 179.478 4.00294 179.711L3.13794 180.046L3.05043 180.969C2.98645 181.644 2.98122 182.333 3.047 183.029L3.13425 183.952L3.99881 184.287C4.60418 184.521 5.18315 184.796 5.73278 185.121C5.73873 185.127 5.75323 185.141 5.77371 185.167C5.81042 185.214 5.85076 185.281 5.88431 185.362C5.91787 185.443 5.93676 185.519 5.94415 185.578C5.94824 185.611 5.94793 185.631 5.94755 185.639C5.78875 186.257 5.5738 186.86 5.31088 187.457L4.93689 188.304L5.52777 189.018C5.97325 189.557 6.46458 190.04 6.9864 190.471L7.70038 191.062L8.54781 190.688C9.14206 190.425 9.74449 190.21 10.3612 190.052C10.3692 190.052 10.3891 190.052 10.4219 190.056C10.4811 190.063 10.557 190.082 10.6381 190.116C10.7192 190.149 10.7864 190.19 10.8337 190.226C10.8602 190.247 10.8743 190.262 10.8798 190.268C11.2037 190.816 11.4778 191.393 11.712 191.998L12.047 192.864L12.9708 192.95C13.6441 193.013 14.3329 193.019 15.0286 192.953L15.9515 192.866L16.2862 192.001C16.5206 191.396 16.7955 190.817 17.1208 190.267C17.1262 190.261 17.1402 190.247 17.1665 190.226C17.2136 190.19 17.2807 190.149 17.3617 190.116C17.4427 190.082 17.5186 190.063 17.5779 190.056C17.6108 190.052 17.631 190.052 17.639 190.052C18.2572 190.211 18.8611 190.426 19.4557 190.689L20.3038 191.063L21.018 190.472C21.5562 190.027 22.0397 189.535 22.4711 189.014L23.0613 188.3L22.6872 187.452ZM17.9743 188.59C18.6942 188.772 19.3884 189.019 20.0616 189.317C20.5224 188.935 20.9397 188.512 21.3149 188.058C21.0184 187.386 20.7721 186.693 20.5895 185.974C20.4206 185.251 20.8386 184.242 21.4697 183.85C22.1068 183.47 22.7712 183.154 23.4565 182.89C23.5115 182.303 23.5163 181.708 23.4599 181.112C22.7739 180.847 22.1082 180.531 21.4697 180.15C20.8386 179.758 20.4206 178.75 20.5895 178.026C20.7727 177.306 21.0191 176.612 21.3163 175.938C20.9349 175.478 20.5115 175.06 20.0575 174.685C19.3864 174.982 18.6929 175.228 17.9743 175.41C17.2502 175.579 16.2418 175.161 15.8496 174.53C15.4696 173.893 15.1541 173.229 14.8894 172.543C14.3024 172.488 13.708 172.484 13.1122 172.541C12.8469 173.226 12.5307 173.892 12.1507 174.53C11.7578 175.161 10.7494 175.579 10.026 175.41C9.30536 175.227 8.61116 174.981 7.93801 174.684C7.47725 175.065 7.0606 175.488 6.68466 175.942C6.9812 176.614 7.22821 177.307 7.41007 178.026C7.57904 178.75 7.16103 179.758 6.52995 180.15C5.89276 180.53 5.22842 180.846 4.54373 181.111C4.48809 181.697 4.48402 182.292 4.54034 182.888C5.22571 183.153 5.8914 183.469 6.52995 183.85C7.16103 184.242 7.57904 185.251 7.41007 185.974C7.22753 186.695 6.98053 187.388 6.68331 188.062C7.06467 188.523 7.48811 188.94 7.94208 189.315C8.61388 189.019 9.30671 188.772 10.026 188.59C10.7494 188.421 11.7578 188.839 12.1507 189.47C12.53 190.107 12.8455 190.772 13.1109 191.457C13.6972 191.512 14.2916 191.516 14.8874 191.46C15.1527 190.774 15.4689 190.109 15.8496 189.47C16.2418 188.839 17.2502 188.421 17.9743 188.59Z" fill="#393B3D"/>
</svg>
