<svg width="23" height="24" viewBox="0 0 23 24" fill="none" xmlns="http://www.w3.org/2000/svg">
<g opacity="0.7">
<path d="M1.8 7.80019V6.0002H21V7.80019H1.8Z" fill="white"/>
<path d="M3.6 1.2002C1.61177 1.2002 0 2.81197 0 4.80019V20.4002C0 22.3884 1.61177 24.0002 3.6 24.0002H19.2C21.1882 24.0002 22.8 22.3884 22.8 20.4002V4.80019C22.8 2.81197 21.1882 1.2002 19.2 1.2002V3.0002C20.1941 3.0002 21 3.80608 21 4.80019V20.4002C21 21.3943 20.1941 22.2002 19.2 22.2002H3.6C2.60589 22.2002 1.8 21.3943 1.8 20.4002V4.80019C1.8 3.80608 2.60589 3.0002 3.6 3.0002V1.2002Z" fill="white"/>
<path d="M3.6 1.2002H19.2V3.0002H3.6V1.2002Z" fill="white"/>
</g>
<path d="M15.6 0.9C15.6 0.402944 16.003 0 16.5 0C16.9971 0 17.4 0.402944 17.4 0.9V3.3C17.4 3.79706 16.9971 4.2 16.5 4.2C16.003 4.2 15.6 3.79706 15.6 3.3V0.9Z" fill="#BDBEBE"/>
<path d="M5.40002 0.9C5.40002 0.402944 5.80297 0 6.30002 0C6.79708 0 7.20002 0.402944 7.20002 0.9V3.3C7.20002 3.79706 6.79708 4.2 6.30002 4.2C5.80297 4.2 5.40002 3.79706 5.40002 3.3V0.9Z" fill="#BDBEBE"/>
<path d="M11.4065 10.2C11.0292 10.2 10.7205 10.4093 10.5491 10.7233L9.65733 12.3977C9.58873 12.5372 9.45154 12.6419 9.31435 12.6767L7.4623 12.9558C7.08503 12.9907 6.77635 13.2698 6.63916 13.6186C6.53627 14.0023 6.63916 14.386 6.91354 14.6651L8.18254 15.886C8.28543 15.9907 8.35403 16.1651 8.31973 16.3047L8.04535 18.0837C8.01106 18.4326 8.14824 18.8163 8.45692 19.0256C8.62841 19.1651 8.83419 19.2 9.03998 19.2C9.17716 19.2 9.31435 19.1651 9.45154 19.0954L11.2007 18.2581C11.2693 18.2233 11.3379 18.2233 11.4065 18.2233C11.4751 18.2233 11.5437 18.2233 11.6123 18.2581L13.3271 19.0954C13.4643 19.1651 13.6015 19.2 13.773 19.2C13.9788 19.2 14.1846 19.1302 14.3561 19.0256C14.6647 18.8163 14.8019 18.4326 14.7676 18.0488L14.4933 16.3047C14.459 16.1302 14.5275 15.9907 14.6304 15.886L15.8994 14.6651C16.1738 14.4209 16.2767 14.0023 16.1395 13.6535C16.0366 13.3047 15.728 13.0256 15.3507 12.9907L13.5329 12.6419C13.3957 12.607 13.2585 12.5372 13.19 12.3977L12.2982 10.7233C12.1267 10.4093 11.7838 10.2 11.4065 10.2Z" fill="#BDBEBE"/>
</svg>
