<svg width="28" height="28" viewBox="0 0 28 28" fill="none" xmlns="http://www.w3.org/2000/svg">
<path d="M14 4.25C11.793 4.25 9.73653 4.88476 8.00055 5.98138C7.65035 6.2026 7.18713 6.09804 6.96592 5.74785C6.7447 5.39765 6.84926 4.93443 7.19945 4.71322C9.16811 3.46961 11.5012 2.75 14 2.75C16.4988 2.75 18.8319 3.46961 20.8005 4.71322C21.1507 4.93443 21.2553 5.39765 21.0341 5.74785C20.8129 6.09804 20.3496 6.2026 19.9995 5.98138C18.2635 4.88476 16.207 4.25 14 4.25Z" fill="white"/>
<path d="M4.25 15.5C4.25 10.1152 8.61522 5.75 14 5.75C19.3848 5.75 23.75 10.1152 23.75 15.5C23.75 15.5514 23.7448 15.6015 23.735 15.65C23.7448 15.6985 23.75 15.7486 23.75 15.8C23.75 17.8711 22.0711 19.55 20 19.55C17.9289 19.55 16.25 17.8711 16.25 15.8C16.25 15.7486 16.2552 15.6985 16.265 15.65C16.2552 15.6015 16.25 15.5514 16.25 15.5C16.25 14.2574 15.2426 13.25 14 13.25C12.7574 13.25 11.75 14.2574 11.75 15.5C11.75 19.3223 14.5179 22.4997 18.1587 23.1345C18.5668 23.2056 18.8399 23.5941 18.7688 24.0022C18.6976 24.4102 18.3091 24.6833 17.9011 24.6122C13.5544 23.8543 10.25 20.0638 10.25 15.5C10.25 13.4289 11.9289 11.75 14 11.75C16.0711 11.75 17.75 13.4289 17.75 15.5C17.75 15.5514 17.7448 15.6015 17.735 15.65C17.7448 15.6985 17.75 15.7486 17.75 15.8C17.75 17.0426 18.7574 18.05 20 18.05C21.2426 18.05 22.25 17.0426 22.25 15.8C22.25 15.7486 22.2552 15.6985 22.265 15.65C22.2552 15.6015 22.25 15.5514 22.25 15.5C22.25 10.9437 18.5563 7.25 14 7.25C9.44365 7.25 5.75 10.9437 5.75 15.5C5.75 16.9912 5.99604 18.4234 6.44915 19.7591C6.51401 19.9503 6.58312 20.1395 6.65637 20.3267C6.80732 20.7124 6.617 21.1475 6.23127 21.2984C5.84554 21.4494 5.41047 21.259 5.25952 20.8733C5.17792 20.6648 5.10092 20.454 5.02866 20.2409C4.52359 18.7521 4.25 17.1572 4.25 15.5Z" fill="white"/>
<path d="M14 10.25C11.1005 10.25 8.75 12.6005 8.75 15.5C8.75 19.1174 10.6233 22.2977 13.4562 24.123C13.8044 24.3474 13.9048 24.8115 13.6805 25.1597C13.4561 25.5079 12.992 25.6083 12.6438 25.3839C9.4004 23.2941 7.25 19.6484 7.25 15.5C7.25 11.7721 10.2721 8.75 14 8.75C17.7279 8.75 20.75 11.7721 20.75 15.5C20.75 15.9142 20.4142 16.25 20 16.25C19.5858 16.25 19.25 15.9142 19.25 15.5C19.25 12.6005 16.8995 10.25 14 10.25Z" fill="white"/>
<path d="M14 14.75C14.4142 14.75 14.75 15.0858 14.75 15.5C14.75 18.3995 17.1005 20.75 20 20.75C20.3761 20.75 20.7421 20.7106 21.0945 20.6359C21.4997 20.55 21.8978 20.8089 21.9837 21.2141C22.0696 21.6193 21.8107 22.0174 21.4055 22.1033C20.9515 22.1995 20.4812 22.25 20 22.25C16.2721 22.25 13.25 19.2279 13.25 15.5C13.25 15.0858 13.5858 14.75 14 14.75Z" fill="white"/>
</svg>
