<?xml version="1.0" encoding="utf-8"?>
<!-- Generator: Adobe Illustrator 22.1.0, SVG Export Plug-In . SVG Version: 6.00 Build 0)  -->
<svg version="1.1"
	 id="svg4" inkscape:version="0.92.4 (5da689c313, 2019-01-14)" sodipodi:docname="voice.svg" xmlns:cc="http://creativecommons.org/ns#" xmlns:dc="http://purl.org/dc/elements/1.1/" xmlns:inkscape="http://www.inkscape.org/namespaces/inkscape" xmlns:rdf="http://www.w3.org/1999/02/22-rdf-syntax-ns#" xmlns:sodipodi="http://sodipodi.sourceforge.net/DTD/sodipodi-0.dtd" xmlns:svg="http://www.w3.org/2000/svg"
	 xmlns="http://www.w3.org/2000/svg" xmlns:xlink="http://www.w3.org/1999/xlink" x="0px" y="0px" viewBox="0 0 41 121.6"
	 style="enable-background:new 0 0 41 121.6;" xml:space="preserve">
<style type="text/css">
	.st0{fill:#414346;}
	.st1{fill:none;stroke:#414346;stroke-miterlimit:10;}
	.st2{fill:none;stroke:#414346;stroke-linecap:round;stroke-miterlimit:10;}
</style>
<sodipodi:namedview  bordercolor="#666666" borderopacity="1" gridtolerance="10" guidetolerance="10" id="namedview6" inkscape:current-layer="svg4" inkscape:cx="9.7684013" inkscape:cy="151.76443" inkscape:pagecheckerboard="true" inkscape:pageopacity="0" inkscape:pageshadow="2" inkscape:window-height="991" inkscape:window-maximized="0" inkscape:window-width="1745" inkscape:window-x="544" inkscape:window-y="1440" inkscape:zoom="7.375" objecttolerance="10" pagecolor="#ffffff" showgrid="false">
	</sodipodi:namedview>
<g id="path4526_1_">
	<path class="st0" d="M17.2,14.3c-0.2,0-0.3,0-0.5-0.1L13.5,13c-0.5-0.2-0.8-0.7-0.8-1.3l0.2-1.7C11,9.4,9,9.4,7.1,10l0.2,1.7
		C7.4,12.2,7,12.8,6.5,13l-3.2,1.3c-0.6,0.2-1.2,0-1.5-0.5l-1.6-2.5c-0.3-0.5-0.2-1.1,0.2-1.6c5.3-5.3,13.9-5.3,19.3,0
		c0.4,0.4,0.5,1.1,0.2,1.6l-1.6,2.5C18,14.1,17.6,14.3,17.2,14.3z M10,8.3c1.3,0,2.5,0.2,3.7,0.7l0.4,0.2l-0.3,2.6l3.2,1.4l1.7-2.6
		c0,0,0-0.1,0-0.1C14,5.6,6.1,5.6,1.2,10.5l1.6,2.6l3.3-1.2L5.9,9.2L6.3,9C7.5,8.6,8.8,8.3,10,8.3z"/>
</g>
<g id="path4526_2_">
	<path class="st0" d="M4.2,38.2c-0.6,0-1.1-0.4-1.2-1l-0.7-2.9c-0.1-0.6,0.2-1.2,0.7-1.4l3.1-1.3c0.5-0.2,1.1-0.1,1.5,0.4l1.1,1.3
		c1.7-0.9,3.2-2.3,4.1-4.1L11.5,28c-0.4-0.4-0.6-1-0.4-1.5l1.3-3.1c0.2-0.6,0.9-0.9,1.5-0.7l2.9,0.7c0.6,0.1,1,0.6,1,1.2
		C17.8,32.1,11.7,38.2,4.2,38.2z M6.7,32.6l-3.2,1.3l0.6,3c0,0,0,0.1,0.1,0.1c6.9,0,12.4-5.6,12.4-12.4l-3-0.8L12.2,27l2.1,1.8
		l-0.2,0.4c-1.1,2.3-3,4.2-5.3,5.3l-0.4,0.2L6.7,32.6z"/>
</g>
<g>
	<g id="path847">
		<path class="st0" d="M15.3,59.7c-0.2,0-0.3-0.1-0.5-0.2c-0.2-0.3-0.2-0.6,0.1-0.8c2.5-1.9,3.9-5.2,3.9-8.8S17.4,43,14.9,41
			c-0.3-0.2-0.3-0.6-0.1-0.8c0.2-0.3,0.6-0.3,0.8-0.1c2.8,2.2,4.4,5.8,4.4,9.7c0,3.9-1.6,7.6-4.4,9.7C15.5,59.7,15.4,59.7,15.3,59.7
			z M13.5,56.6c-0.2,0-0.4-0.1-0.5-0.2c-0.2-0.3-0.1-0.6,0.1-0.8c1.6-1.2,2.6-3.4,2.6-5.7s-1-4.4-2.6-5.7c-0.3-0.2-0.3-0.6-0.1-0.8
			c0.2-0.3,0.6-0.3,0.8-0.1c1.9,1.5,3,3.9,3,6.6s-1.1,5.1-3,6.6C13.7,56.5,13.6,56.6,13.5,56.6z M11.7,53.4c-0.2,0-0.4-0.1-0.5-0.3
			c-0.2-0.3-0.1-0.6,0.2-0.8c0.8-0.5,1.2-1.5,1.2-2.5s-0.5-2-1.2-2.5c-0.3-0.2-0.3-0.5-0.2-0.8c0.2-0.3,0.5-0.3,0.8-0.2
			c1.1,0.7,1.8,2.1,1.8,3.5c0,1.4-0.7,2.8-1.8,3.5C11.9,53.4,11.8,53.4,11.7,53.4z"/>
	</g>
	<g>
		<path class="st0" d="M8.2,58c-0.4,0-0.7-0.2-1-0.5l-2.7-3.3H1.4c-0.8,0-1.4-0.7-1.4-1.5V47c0-0.8,0.6-1.5,1.4-1.5h3.1l2.7-3.3
			c0.4-0.4,0.9-0.6,1.4-0.4c0.6,0.2,0.9,0.8,0.9,1.5v13.2c0,0.7-0.4,1.2-0.9,1.5C8.5,57.9,8.3,58,8.2,58z M1.4,46.7
			c-0.1,0-0.2,0.1-0.2,0.4v5.6c0,0.2,0.1,0.4,0.2,0.4H5l3.1,3.7c0.1,0.1,0.1,0.1,0.1,0.1c0.1,0,0.2-0.2,0.2-0.3V43.3
			c0-0.2-0.1-0.3-0.2-0.3c0,0-0.1,0-0.1,0.1v0L5,46.7H1.4z"/>
	</g>
</g>
<g>
	<g id="path873">
		<path class="st0" d="M10.9,96.2l-1.8,0c-3.4-0.5-5.9-3.4-5.9-6.9v-1.4c0-0.3,0.3-0.6,0.6-0.6s0.6,0.3,0.6,0.6v1.4
			c0,2.9,2.1,5.4,4.8,5.8l1.6,0c2.7-0.4,4.7-2.7,4.7-5.5v-1.7c0-0.3,0.3-0.6,0.6-0.6s0.6,0.3,0.6,0.6v1.7
			C16.7,92.9,14.2,95.8,10.9,96.2z"/>
	</g>
	<g>
		<path class="st0" d="M10,93.5c-2.2,0-3.9-1.8-3.9-3.9V84c0-2.2,1.8-3.9,3.9-3.9c2.2,0,3.9,1.8,3.9,3.9v5.6
			C13.9,91.7,12.2,93.5,10,93.5z M10,81.2c-1.5,0-2.8,1.2-2.8,2.8v5.6c0,1.5,1.2,2.8,2.8,2.8c1.5,0,2.8-1.2,2.8-2.8V84
			C12.8,82.4,11.5,81.2,10,81.2z"/>
	</g>
	<g>
		<path class="st0" d="M10,99.6c-0.3,0-0.6-0.3-0.6-0.6v-3.4c0-0.3,0.3-0.6,0.6-0.6s0.6,0.3,0.6,0.6V99C10.6,99.4,10.3,99.6,10,99.6
			z"/>
	</g>
	<g>
		<path class="st0" d="M13.4,100H6.6c-0.3,0-0.6-0.3-0.6-0.6s0.3-0.6,0.6-0.6h6.7c0.3,0,0.6,0.3,0.6,0.6S13.7,100,13.4,100z"/>
	</g>
</g>
<g>
	<g>
		<g id="path873_2_">
			<path class="st0" d="M11,116.2l-1.8,0c-3.4-0.5-5.9-3.4-5.9-6.9v-1.4c0-0.3,0.3-0.6,0.6-0.6s0.6,0.3,0.6,0.6v1.4
				c0,2.9,2.1,5.4,4.8,5.8l1.6,0c2.7-0.4,4.7-2.7,4.7-5.5v-1.7c0-0.3,0.3-0.6,0.6-0.6s0.6,0.3,0.6,0.6v1.7
				C16.8,112.9,14.3,115.8,11,116.2z"/>
		</g>
		<g>
			<path class="st0" d="M10,113.5c-2.2,0-3.9-1.8-3.9-3.9V104c0-2.2,1.8-3.9,3.9-3.9c2.2,0,3.9,1.8,3.9,3.9v5.6
				C14,111.7,12.2,113.5,10,113.5z M10,101.2c-1.5,0-2.8,1.2-2.8,2.8v5.6c0,1.5,1.2,2.8,2.8,2.8c1.5,0,2.8-1.2,2.8-2.8V104
				C12.8,102.4,11.6,101.2,10,101.2z"/>
		</g>
		<g>
			<path class="st0" d="M10,119.6c-0.3,0-0.6-0.3-0.6-0.6v-3.4c0-0.3,0.3-0.6,0.6-0.6s0.6,0.3,0.6,0.6v3.4
				C10.6,119.4,10.4,119.6,10,119.6z"/>
		</g>
		<g>
			<path class="st0" d="M13.4,120H6.7c-0.3,0-0.6-0.3-0.6-0.6s0.3-0.6,0.6-0.6h6.7c0.3,0,0.6,0.3,0.6,0.6S13.7,120,13.4,120z"/>
		</g>
	</g>
	<g>
		<path class="st0" d="M18.1,117.2c-0.2,0-0.3-0.1-0.4-0.2l-16-16c-0.2-0.2-0.2-0.6,0-0.8c0.2-0.2,0.6-0.2,0.8,0l16,16
			c0.2,0.2,0.2,0.6,0,0.8C18.4,117.2,18.2,117.2,18.1,117.2z"/>
	</g>
</g>
<g>
	<g>
		<g>
			<path class="st0" d="M18.3,73.5c-0.2,0-0.3-0.1-0.4-0.2L12,67.5c-0.2-0.2-0.2-0.6,0-0.8c0.2-0.2,0.6-0.2,0.8,0l5.9,5.9
				c0.2,0.2,0.2,0.6,0,0.8C18.6,73.5,18.5,73.5,18.3,73.5z"/>
		</g>
		<g>
			<path class="st0" d="M12.5,73.5c-0.2,0-0.3-0.1-0.4-0.2c-0.2-0.2-0.2-0.6,0-0.8l5.9-5.9c0.2-0.2,0.6-0.2,0.8,0
				c0.2,0.2,0.2,0.6,0,0.8l-5.9,5.9C12.8,73.5,12.6,73.5,12.5,73.5z"/>
		</g>
	</g>
	<g>
		<path class="st0" d="M8.4,78.1c-0.4,0-0.7-0.2-1-0.5l-2.7-3.3H1.6c-0.8,0-1.4-0.7-1.4-1.5v-5.6c0-0.8,0.6-1.5,1.4-1.5h3.1l2.7-3.3
			c0.4-0.4,0.9-0.6,1.4-0.4c0.6,0.2,0.9,0.8,0.9,1.5v13.2c0,0.7-0.4,1.2-0.9,1.5C8.7,78.1,8.5,78.1,8.4,78.1z M1.6,66.8
			c-0.1,0-0.2,0.1-0.2,0.4v5.6c0,0.2,0.1,0.4,0.2,0.4h3.6l3.1,3.7c0.1,0.1,0.1,0.1,0.1,0.1c0.1,0,0.2-0.2,0.2-0.3V63.4
			c0-0.2-0.1-0.3-0.2-0.3c0,0-0.1,0-0.1,0.1v0l-3.1,3.7H1.6z"/>
	</g>
</g>
<path class="st0" d="M40.6,9.6c-5.3-5.3-13.9-5.3-19.3,0c-0.4,0.4-0.5,1.1-0.2,1.6l1.6,2.5c0.3,0.5,1,0.7,1.5,0.5l3.2-1.3
	c0.5-0.2,0.8-0.7,0.8-1.3L28.1,10c1.9-0.6,3.9-0.6,5.8,0l-0.2,1.7c-0.1,0.6,0.3,1.1,0.8,1.3l3.2,1.3c0.2,0.1,0.3,0.1,0.5,0.1
	c0.4,0,0.8-0.2,1.1-0.6l1.6-2.5C41.1,10.7,41,10.1,40.6,9.6z"/>
<path class="st0" d="M37.8,23.3l-2.9-0.7c-0.6-0.1-1.2,0.2-1.5,0.7l-1.3,3.1c-0.2,0.5-0.1,1.1,0.4,1.5l1.3,1.1
	c-0.9,1.7-2.3,3.2-4.1,4.1l-1.1-1.3c-0.4-0.4-1-0.6-1.5-0.4L24,32.8c-0.6,0.2-0.9,0.9-0.7,1.4l0.7,2.9c0.1,0.6,0.6,1,1.2,1
	c7.5,0,13.6-6.1,13.6-13.6C38.8,24,38.4,23.5,37.8,23.3z"/>
<path class="st0" d="M32.9,46.3c-0.3-0.2-0.6-0.1-0.8,0.2c-0.2,0.3-0.1,0.6,0.2,0.8c0.8,0.5,1.2,1.5,1.2,2.5s-0.5,2-1.2,2.5
	c-0.3,0.2-0.3,0.5-0.2,0.8c0.1,0.2,0.3,0.3,0.5,0.3c0.1,0,0.2,0,0.3-0.1c1.1-0.7,1.8-2.1,1.8-3.5C34.7,48.4,34,47.1,32.9,46.3z
	 M34.8,43.2c-0.3-0.2-0.6-0.1-0.8,0.1c-0.2,0.3-0.1,0.6,0.1,0.8c1.6,1.2,2.6,3.4,2.6,5.7c0,2.3-1,4.4-2.6,5.7
	c-0.3,0.2-0.3,0.6-0.1,0.8c0.1,0.2,0.3,0.2,0.5,0.2c0.1,0,0.3,0,0.4-0.1c1.9-1.5,3-3.9,3-6.6S36.7,44.7,34.8,43.2z M36.6,40.1
	c-0.3-0.2-0.6-0.2-0.8,0.1c-0.2,0.3-0.2,0.6,0.1,0.8c2.5,1.9,3.9,5.2,3.9,8.8s-1.5,6.8-3.9,8.8c-0.3,0.2-0.3,0.6-0.1,0.8
	c0.1,0.1,0.3,0.2,0.5,0.2c0.1,0,0.3,0,0.4-0.1c2.8-2.2,4.4-5.8,4.4-9.7C41,45.9,39.3,42.3,36.6,40.1z M29.6,41.8
	c-0.5-0.2-1.1,0-1.4,0.4l-2.7,3.3h-3.1c-0.8,0-1.4,0.7-1.4,1.5v5.6c0,0.8,0.6,1.5,1.4,1.5h3.1l2.7,3.3c0.3,0.3,0.6,0.5,1,0.5
	c0.1,0,0.3,0,0.4-0.1c0.6-0.2,0.9-0.8,0.9-1.5V43.3C30.5,42.6,30.2,42,29.6,41.8z"/>
<path class="st0" d="M37.1,87.3c-0.3,0-0.6,0.3-0.6,0.6v1.7c0,2.8-2.1,5.1-4.7,5.5l-0.8,0c0,0,0,0,0,0c0,0,0,0,0,0l-0.7,0
	c-2.7-0.4-4.8-2.9-4.8-5.8v-1.4c0-0.3-0.3-0.6-0.6-0.6s-0.6,0.3-0.6,0.6v1.4c0,3.5,2.5,6.5,5.9,6.9l0.3,0v2.6h-2.8
	c-0.3,0-0.6,0.3-0.6,0.6s0.3,0.6,0.6,0.6h6.7c0.3,0,0.6-0.3,0.6-0.6s-0.3-0.6-0.6-0.6h-2.8v-2.6l0.3,0c3.3-0.5,5.8-3.3,5.8-6.7v-1.7
	C37.7,87.6,37.5,87.3,37.1,87.3z M31,93.5c2.2,0,3.9-1.8,3.9-3.9V84c0-2.2-1.8-3.9-3.9-3.9C28.8,80,27,81.8,27,84v5.6
	C27,91.7,28.8,93.5,31,93.5z"/>
<path class="st0" d="M39.4,116.2l-2.9-2.9c0.7-1.1,1.2-2.4,1.2-3.8v-1.7c0-0.3-0.3-0.6-0.6-0.6c-0.3,0-0.6,0.3-0.6,0.6v1.7
	c0,1.1-0.3,2.1-0.9,2.9l-1.2-1.2c0.3-0.5,0.4-1.1,0.4-1.8V104c0-2.2-1.8-3.9-3.9-3.9c-2.1,0-3.9,1.7-3.9,3.8l-3.7-3.7
	c-0.2-0.2-0.6-0.2-0.8,0c-0.2,0.2-0.2,0.6,0,0.8l4.5,4.5v4c0,2.2,1.8,3.9,3.9,3.9c1.1,0,2.1-0.5,2.8-1.2l1.1,1.1
	c-0.8,0.9-1.9,1.5-3.1,1.6l-0.8,0c0,0,0,0,0,0c0,0,0,0,0,0l-0.7,0c-2.7-0.4-4.8-2.9-4.8-5.8v-1.4c0-0.3-0.3-0.6-0.6-0.6
	s-0.6,0.3-0.6,0.6v1.4c0,3.5,2.5,6.5,5.9,6.9l0.3,0v2.6h-2.8c-0.3,0-0.6,0.3-0.6,0.6s0.3,0.6,0.6,0.6h6.7c0.3,0,0.6-0.3,0.6-0.6
	s-0.3-0.6-0.6-0.6h-2.8v-2.6l0.3,0c1.5-0.2,2.9-0.9,3.9-2l2.8,2.8c0.1,0.1,0.3,0.2,0.4,0.2c0.2,0,0.3-0.1,0.4-0.2
	C39.7,116.8,39.7,116.5,39.4,116.2z"/>
<g>
	<path class="st0" d="M37,70l2.5-2.5c0.2-0.2,0.2-0.6,0-0.8s-0.6-0.2-0.8,0l-2.5,2.5l-2.5-2.5c-0.2-0.2-0.6-0.2-0.8,0
		s-0.2,0.6,0,0.8l2.5,2.5l-2.5,2.5c-0.2,0.2-0.2,0.6,0,0.8c0.1,0.1,0.3,0.2,0.4,0.2c0.2,0,0.3-0.1,0.4-0.2l2.5-2.5l2.5,2.5
		c0.1,0.1,0.3,0.2,0.4,0.2c0.2,0,0.3-0.1,0.4-0.2c0.2-0.2,0.2-0.6,0-0.8L37,70z M29.6,62c-0.5-0.2-1.1,0-1.4,0.4v0l-2.7,3.3h-3.1
		c-0.8,0-1.4,0.7-1.4,1.5v5.6c0,0.8,0.6,1.5,1.4,1.5h3.1l2.7,3.3c0.3,0.3,0.6,0.5,1,0.5c0.1,0,0.3,0,0.4-0.1
		c0.6-0.2,0.9-0.8,0.9-1.5V63.4C30.5,62.7,30.2,62.2,29.6,62z"/>
</g>
<path id="path4526_5_" inkscape:connector-curvature="0" class="st1" d="M-35.3,9.5l-1.3,2.1c-0.1,0.2-0.4,0.3-0.7,0.2l-2.7-1.1
	c-0.2-0.1-0.4-0.3-0.4-0.6l0.2-1.8c-1.9-0.7-4-0.7-5.9,0l0.2,1.8c0,0.3-0.1,0.5-0.4,0.6l-2.7,1.1c-0.3,0.1-0.6,0-0.7-0.2L-51,9.5
	c-0.1-0.2-0.1-0.5,0.1-0.7c4.3-4.3,11.3-4.3,15.6,0C-35.2,9-35.2,9.3-35.3,9.5z"/>
<path id="path4526_4_" inkscape:connector-curvature="0" class="st1" d="M-48.6,34.1l-0.6-2.5c-0.1-0.3,0.1-0.5,0.3-0.7l2.7-1.1
	c0.2-0.1,0.5,0,0.7,0.2l1.2,1.4c1.8-0.9,3.3-2.3,4.2-4.2l-1.4-1.2c-0.2-0.2-0.3-0.4-0.2-0.7l1.1-2.7c0.1-0.3,0.4-0.4,0.7-0.3
	l2.5,0.6c0.3,0.1,0.4,0.3,0.4,0.6c0,6.1-4.9,11-11,11C-48.4,34.5-48.6,34.3-48.6,34.1z"/>
<g>
	<path id="path847_2_" inkscape:connector-curvature="0" class="st2" d="M-38.7,55.3c2.2-1.7,3.5-4.7,3.5-7.9c0-3.2-1.3-6.1-3.5-7.9
		 M-40.2,52.6c1.5-1.1,2.4-3.1,2.4-5.2c0-2.1-0.9-4.1-2.4-5.2 M-41.8,50c0.8-0.5,1.3-1.5,1.3-2.6s-0.5-2-1.3-2.6"/>
	<path class="st1" d="M-45.2,41.3l-2.5,3h-2.8c-0.4,0-0.7,0.4-0.7,0.8v4.8c0,0.4,0.3,0.8,0.7,0.8h2.8l2.5,3c0.4,0.5,1.1,0.1,1.1-0.6
		V41.8C-44,41.1-44.8,40.8-45.2,41.3z"/>
</g>
<g>
	<line class="st2" x1="-41.3" y1="63.8" x2="-36.3" y2="68.8"/>
	<line class="st2" x1="-36.3" y1="63.8" x2="-41.3" y2="68.8"/>
</g>
<g>
	<path id="path873_4_" inkscape:connector-curvature="0" class="st2" d="M-48.4,83.5v1.2c0,2.7,1.9,5,4.5,5.4l1.4,0
		c2.6-0.3,4.5-2.5,4.5-5.2v-1.4"/>
	<path class="st1" d="M-43.2,87.8c1.6,0,2.9-1.3,2.9-2.9v-4.8c0-1.6-1.3-2.9-2.9-2.9c-1.6,0-2.9,1.3-2.9,2.9V85
		C-46,86.5-44.7,87.8-43.2,87.8z"/>
	<line class="st2" x1="-43.2" y1="90.1" x2="-43.2" y2="93"/>
	<line class="st2" x1="-46" y1="93.4" x2="-40.3" y2="93.4"/>
</g>
<g>
	<g>
		<path id="path873_3_" inkscape:connector-curvature="0" class="st2" d="M-48.4,102.5v1.2c0,2.7,1.9,5,4.5,5.4l1.4,0
			c2.6-0.3,4.5-2.5,4.5-5.2v-1.4"/>
		<path class="st1" d="M-43.2,106.8c1.6,0,2.9-1.3,2.9-2.9v-4.8c0-1.6-1.3-2.9-2.9-2.9c-1.6,0-2.9,1.3-2.9,2.9v4.8
			C-46,105.5-44.7,106.8-43.2,106.8z"/>
		<line class="st2" x1="-43.2" y1="109.1" x2="-43.2" y2="112"/>
		<line class="st2" x1="-46" y1="112.3" x2="-40.3" y2="112.3"/>
	</g>
	<line class="st2" x1="-50" y1="96.3" x2="-36.3" y2="110"/>
</g>
<rect x="-52.6" class="st1" width="19" height="19"/>
<rect x="-52.6" y="19" class="st1" width="19" height="19"/>
<rect x="-52.6" y="37.9" class="st1" width="19" height="19"/>
<rect x="-52.6" y="56.9" class="st1" width="19" height="19"/>
<rect x="-52.6" y="75.9" class="st1" width="19" height="19"/>
<rect x="-52.6" y="94.8" class="st1" width="19" height="19"/>
<path class="st1" d="M-45.2,60.2l-2.5,3h-2.8c-0.4,0-0.7,0.4-0.7,0.8v4.8c0,0.4,0.3,0.8,0.7,0.8h2.8l2.5,3c0.4,0.5,1.1,0.1,1.1-0.6
	V60.7C-44,60-44.8,59.7-45.2,60.2z"/>
</svg>
