<svg width="192" height="192" viewBox="0 0 192 192" fill="none" xmlns="http://www.w3.org/2000/svg">
<path fill-rule="evenodd" clip-rule="evenodd" d="M54.6543 168.724C54.6543 168.724 55.6793 160.892 62.5273 161.762C69.3753 162.632 78.2393 165.823 78.2393 165.823L72.2823 173.655L54.6543 168.724Z" fill="#BCBDBD"/>
<path fill-rule="evenodd" clip-rule="evenodd" d="M54.6543 168.724C54.6543 168.724 55.6793 160.892 62.5273 161.762C69.3753 162.632 78.2393 165.823 78.2393 165.823L72.2823 173.655L54.6543 168.724Z" stroke="#767879" stroke-linejoin="round"/>
<path fill-rule="evenodd" clip-rule="evenodd" d="M68.8496 120.135L62.5276 161.762L78.2396 165.823L86.5686 122.165L68.8496 120.135Z" fill="#BCBDBD"/>
<path fill-rule="evenodd" clip-rule="evenodd" d="M68.8496 120.135L62.5276 161.762L78.2396 165.823L86.5686 122.165L68.8496 120.135Z" stroke="#767879" stroke-linejoin="round"/>
<path fill-rule="evenodd" clip-rule="evenodd" d="M98.1709 122.165L90.5079 169.594L72.2819 173.654C72.2819 173.654 71.8189 166.112 78.2389 165.822L86.5679 122.165H98.1709Z" fill="#767879"/>
<path fill-rule="evenodd" clip-rule="evenodd" d="M98.1709 122.165L90.5079 169.594L72.2819 173.654C72.2819 173.654 71.8189 166.112 78.2389 165.822L86.5679 122.165H98.1709Z" stroke="#767879" stroke-linejoin="round"/>
<path fill-rule="evenodd" clip-rule="evenodd" d="M91.9072 165.417C91.9072 165.417 84.8612 168.015 88.3702 174.065L106.369 175.5L112.753 163.104L91.9072 165.417Z" fill="#BCBDBD"/>
<path fill-rule="evenodd" clip-rule="evenodd" d="M91.9072 165.417C91.9072 165.417 84.8612 168.015 88.3702 174.065L106.369 175.5L112.753 163.104L91.9072 165.417Z" stroke="#767879" stroke-linejoin="round"/>
<path fill-rule="evenodd" clip-rule="evenodd" d="M85.7168 122.332L91.9068 165.417L108.154 166.853L105.756 127.289L85.7168 122.332Z" fill="#BCBDBD"/>
<path fill-rule="evenodd" clip-rule="evenodd" d="M85.7168 122.332L91.9068 165.417L108.154 166.853L105.756 127.289L85.7168 122.332Z" stroke="#767879" stroke-linejoin="round"/>
<path fill-rule="evenodd" clip-rule="evenodd" d="M117.276 116.942L118.078 166.879L106.369 175.501C106.369 175.501 101.9 168.586 108.154 166.853L105.755 127.29L117.276 116.942Z" fill="#767879"/>
<path fill-rule="evenodd" clip-rule="evenodd" d="M117.276 116.942L118.078 166.879L106.369 175.501C106.369 175.501 101.9 168.586 108.154 166.853L105.755 127.29L117.276 116.942Z" stroke="#767879" stroke-linejoin="round"/>
<path fill-rule="evenodd" clip-rule="evenodd" d="M122.277 42.0002L121.253 34.2962L121.765 33.7732L121.964 33.7652C128.966 33.4922 128.966 30.9752 128.966 30.1472C128.966 28.2952 127.667 27.2802 125.399 27.2802C123.144 27.2802 121.204 28.2082 119.294 30.2022L118.921 30.5912L114.521 25.7032L114.814 25.3692C117.685 22.0932 121.187 20.5002 125.521 20.5002C132.102 20.5002 136.19 24.1012 136.19 29.8982C136.19 34.8242 133.351 37.8902 127.752 39.0922L127.291 42.0002H122.277ZM121.34 52.0002H128.34V45.0002H121.34V52.0002Z" fill="#BCBDBD"/>
<path fill-rule="evenodd" clip-rule="evenodd" d="M128.841 44.5002H127.841H121.841H120.841V45.5002V51.5002V52.5002H121.841H127.841H128.841V51.5002V45.5002V44.5002ZM125.522 20.0002C121.035 20.0002 117.409 21.6482 114.439 25.0402L113.854 25.7082L114.447 26.3682L118.189 30.5252L118.909 31.3262L119.654 30.5482C121.464 28.6602 123.29 27.7802 125.4 27.7802C126.545 27.7802 128.467 28.0772 128.467 30.0642V30.1472C128.467 30.8562 128.467 33.0112 121.945 33.2662L121.548 33.2812L121.271 33.5642L121.067 33.7712L120.725 34.1202L120.789 34.6042L121.724 41.6322L121.84 42.5002H122.715H126.864H127.718L127.852 41.6562L128.193 39.5062C133.833 38.1992 136.691 34.9972 136.691 29.9822V29.8982C136.691 23.7922 132.411 20.0002 125.522 20.0002ZM121.841 51.5002H127.841V45.5002H121.841V51.5002ZM125.522 21.0002C131.582 21.0002 135.691 24.2022 135.691 29.8982V29.9822C135.691 35.4702 131.947 37.7572 127.313 38.6722L126.864 41.5002H122.715L121.78 34.4722L121.984 34.2652C127.313 34.0572 129.467 32.5592 129.467 30.1472V30.0642C129.467 28.0272 127.963 26.7802 125.4 26.7802C122.96 26.7802 120.885 27.8192 118.933 29.8562L115.191 25.6992C117.632 22.9132 120.885 21.0002 125.522 21.0002Z" fill="#767879"/>
<path fill-rule="evenodd" clip-rule="evenodd" d="M123.031 105.787C123.031 105.787 133.21 105.725 139.995 103.237C146.779 100.749 167.181 70.0884 167.181 70.0884L149.672 74.2844L123.031 105.787Z" fill="#767879"/>
<path fill-rule="evenodd" clip-rule="evenodd" d="M123.031 105.787C123.031 105.787 133.21 105.725 139.995 103.237C146.779 100.749 167.181 70.0884 167.181 70.0884L149.672 74.2844L123.031 105.787Z" stroke="#767879" stroke-linejoin="round"/>
<path fill-rule="evenodd" clip-rule="evenodd" d="M36.1152 60.883C36.4582 61.299 36.6682 61.824 36.6572 62.405C36.6322 63.74 35.5012 64.825 34.1302 64.828C32.7592 64.831 31.6672 63.751 31.6912 62.416C31.7012 61.851 31.9182 61.338 32.2592 60.926L29.3622 59.166C27.8762 60.414 26.9172 62.206 26.8812 64.204C26.8112 67.96 30.0072 70.997 34.0162 70.988C38.0262 70.98 41.3332 67.928 41.4022 64.172C41.4382 62.188 40.5572 60.409 39.1342 59.17L36.1152 60.883Z" fill="#BDBEBE"/>
<path fill-rule="evenodd" clip-rule="evenodd" d="M36.1152 60.883C36.4582 61.299 36.6682 61.824 36.6572 62.405C36.6322 63.74 35.5012 64.825 34.1302 64.828C32.7592 64.831 31.6672 63.751 31.6912 62.416C31.7012 61.851 31.9182 61.338 32.2592 60.926L29.3622 59.166C27.8762 60.414 26.9172 62.206 26.8812 64.204C26.8112 67.96 30.0072 70.997 34.0162 70.988C38.0262 70.98 41.3332 67.928 41.4022 64.172C41.4382 62.188 40.5572 60.409 39.1342 59.17L36.1152 60.883Z" stroke="#767879" stroke-linejoin="round"/>
<path fill-rule="evenodd" clip-rule="evenodd" d="M30.8633 64.1955L45.2473 63.2705C45.2473 63.2705 57.3073 77.1005 64.8093 78.7415C72.3103 80.3825 53.5573 89.2905 53.5573 89.2905L35.1573 81.3205L30.8633 64.1955Z" fill="#767879"/>
<path fill-rule="evenodd" clip-rule="evenodd" d="M30.8633 64.1955L45.2473 63.2705C45.2473 63.2705 57.3073 77.1005 64.8093 78.7415C72.3103 80.3825 53.5573 89.2905 53.5573 89.2905L35.1573 81.3205L30.8633 64.1955Z" stroke="#767879" stroke-linejoin="round"/>
<path fill-rule="evenodd" clip-rule="evenodd" d="M55.6768 74.2166C55.6768 74.2166 53.8178 85.3706 49.0978 84.9426C45.2558 84.5926 30.8638 64.1956 30.8638 64.1956L24.4998 72.2726C24.4998 72.2726 35.9898 96.7396 49.7328 98.8536C57.1668 99.9976 61.7108 88.8956 61.1108 82.7966C60.6018 77.6216 55.6768 74.2166 55.6768 74.2166Z" fill="#BDBEBE"/>
<path fill-rule="evenodd" clip-rule="evenodd" d="M55.6768 74.2166C55.6768 74.2166 53.8178 85.3706 49.0978 84.9426C45.2558 84.5926 30.8638 64.1956 30.8638 64.1956L24.4998 72.2726C24.4998 72.2726 35.9898 96.7396 49.7328 98.8536C57.1668 99.9976 61.7108 88.8956 61.1108 82.7966C60.6018 77.6216 55.6768 74.2166 55.6768 74.2166Z" stroke="#767879" stroke-linejoin="round"/>
<path fill-rule="evenodd" clip-rule="evenodd" d="M106.021 127.162L65.7655 123.261L52.4715 72.6572L106.016 76.5212L106.021 127.162Z" fill="#BDBEBE"/>
<path fill-rule="evenodd" clip-rule="evenodd" d="M106.021 127.162L65.7655 123.261L52.4715 72.6572L106.016 76.5212L106.021 127.162Z" stroke="#767879" stroke-linejoin="round"/>
<path fill-rule="evenodd" clip-rule="evenodd" d="M125.018 64.3386L106.017 76.5216L106.022 127.163L120.051 117.031L125.018 64.3386Z" fill="#767879"/>
<path fill-rule="evenodd" clip-rule="evenodd" d="M125.018 64.3386L106.017 76.5216L106.022 127.163L120.051 117.031L125.018 64.3386Z" stroke="#767879" stroke-linejoin="round"/>
<path fill-rule="evenodd" clip-rule="evenodd" d="M121.537 70.5964L109.288 78.5124C109.288 78.5124 115.469 95.7574 120.481 95.7574C125.495 95.7574 133.146 82.3014 133.146 82.3014L121.537 70.5964Z" fill="#BDBEBE"/>
<path fill-rule="evenodd" clip-rule="evenodd" d="M121.537 70.5964L109.288 78.5124C109.288 78.5124 115.469 95.7574 120.481 95.7574C125.495 95.7574 133.146 82.3014 133.146 82.3014L121.537 70.5964Z" stroke="#767879" stroke-linejoin="round"/>
<path fill-rule="evenodd" clip-rule="evenodd" d="M109.288 78.5125C109.288 78.5125 117.322 88.4505 120.494 88.6615C123.666 88.8725 133.814 66.8835 133.814 66.8835L149.672 74.2835C149.672 74.2835 131.488 106.634 123.031 105.788C114.574 104.942 109.5 97.5415 109.5 97.5415L109.288 78.5125Z" fill="#BDBEBE"/>
<path fill-rule="evenodd" clip-rule="evenodd" d="M109.288 78.5125C109.288 78.5125 117.322 88.4505 120.494 88.6615C123.666 88.8725 133.814 66.8835 133.814 66.8835L149.672 74.2835C149.672 74.2835 131.488 106.634 123.031 105.788C114.574 104.942 109.5 97.5415 109.5 97.5415L109.288 78.5125Z" stroke="#767879" stroke-linejoin="round"/>
<path fill-rule="evenodd" clip-rule="evenodd" d="M52.4717 72.657L70.0607 59.019L125.018 64.339L106.017 76.522L52.4717 72.657Z" fill="#BDBEBE"/>
<path fill-rule="evenodd" clip-rule="evenodd" d="M52.4717 72.657L70.0607 59.019L125.018 64.339L106.017 76.522L52.4717 72.657Z" stroke="#767879" stroke-linejoin="round"/>
<path fill-rule="evenodd" clip-rule="evenodd" d="M90.8232 59.8826C90.8232 59.8826 68.4952 68.1366 71.5822 71.0516C74.6692 73.9666 123.75 64.5126 123.75 64.5126L90.8232 59.8826Z" fill="#767879"/>
<path fill-rule="evenodd" clip-rule="evenodd" d="M87.6582 65.7975L80.4022 67.1855C74.2742 68.9455 62.9762 64.2585 61.3512 54.9425L59.1702 42.4385C57.5452 33.1225 63.4392 24.1905 72.3362 22.4885L79.5912 21.1005C88.4872 19.3985 97.0162 25.5715 98.6422 34.8875L100.823 47.3915C102.448 56.7075 92.7062 64.6565 87.6582 65.7975Z" fill="#BDBEBE"/>
<path fill-rule="evenodd" clip-rule="evenodd" d="M87.6582 65.7975L80.4022 67.1855C74.2742 68.9455 62.9762 64.2585 61.3512 54.9425L59.1702 42.4385C57.5452 33.1225 63.4392 24.1905 72.3362 22.4885L79.5912 21.1005C88.4872 19.3985 97.0162 25.5715 98.6422 34.8875L100.823 47.3915C102.448 56.7075 92.7062 64.6565 87.6582 65.7975Z" stroke="#767879" stroke-linejoin="round"/>
<path fill-rule="evenodd" clip-rule="evenodd" d="M82.6846 36.2325C85.2966 34.5095 86.5906 40.8345 84.4546 41.9695C82.3186 43.1055 80.5416 37.6455 82.6846 36.2325Z" fill="#767879"/>
<path fill-rule="evenodd" clip-rule="evenodd" d="M71.8203 38.383C74.4323 36.66 75.7263 42.984 73.5913 44.12C71.4543 45.256 69.6773 39.795 71.8203 38.383Z" fill="#767879"/>
<path d="M88.5195 55.3597C88.5195 55.3597 84.4915 49.3177 80.1855 50.6007C75.8495 51.8917 74.6385 57.4617 74.6385 57.4617" stroke="#767879" stroke-linecap="round"/>
<path fill-rule="evenodd" clip-rule="evenodd" d="M133.815 66.8836L143.764 64.1506L149.003 68.3146L157.259 65.9436L167.182 70.0886L149.672 74.2836L133.815 66.8836Z" fill="#BDBEBE"/>
<path fill-rule="evenodd" clip-rule="evenodd" d="M133.815 66.8836L143.764 64.1506L149.003 68.3146L157.259 65.9436L167.182 70.0886L149.672 74.2836L133.815 66.8836Z" stroke="#767879" stroke-linejoin="round"/>
<path fill-rule="evenodd" clip-rule="evenodd" d="M156.564 57.8875L152.549 60.9785C153.044 61.5295 153.364 62.2655 153.386 63.1245C153.438 65.1005 151.96 66.9125 150.086 67.1725C148.213 67.4315 146.651 66.0405 146.599 64.0655C146.578 63.2295 146.841 62.4315 147.281 61.7605L143.21 59.7005C141.63 61.4145 140.56 63.5925 140.245 65.9255L148.78 70.3395L159.49 68.3035C159.833 67.1965 160.016 66.0355 159.985 64.8505C159.908 61.9145 158.591 59.4525 156.564 57.8875Z" fill="#BDBEBE"/>
<path fill-rule="evenodd" clip-rule="evenodd" d="M156.564 57.8875L152.549 60.9785C153.044 61.5295 153.364 62.2655 153.386 63.1245C153.438 65.1005 151.96 66.9125 150.086 67.1725C148.213 67.4315 146.651 66.0405 146.599 64.0655C146.578 63.2295 146.841 62.4315 147.281 61.7605L143.21 59.7005C141.63 61.4145 140.56 63.5925 140.245 65.9255L148.78 70.3395L159.49 68.3035C159.833 67.1965 160.016 66.0355 159.985 64.8505C159.908 61.9145 158.591 59.4525 156.564 57.8875Z" stroke="#767879" stroke-linejoin="round"/>
<path fill-rule="evenodd" clip-rule="evenodd" d="M87.8721 21.6438C87.8721 21.6438 92.9831 24.9858 94.4741 31.4518C95.9641 37.9178 99.3111 49.8928 95.2101 57.4828C91.7511 63.8858 74.1831 66.2638 68.8591 64.7028C68.8591 64.7028 73.1431 69.2238 85.0191 66.5938C94.9201 64.4008 100.807 56.1698 101.06 50.4598C101.287 45.3528 97.9531 30.1428 95.8611 27.8188C91.5041 22.9788 87.8721 21.6438 87.8721 21.6438Z" fill="#767879"/>
</svg>
