<svg xmlns="http://www.w3.org/2000/svg" width="92" height="81" viewBox="0 0 92 81" fill="none">
    <g opacity="0.4">
        <path opacity="0.7" fill-rule="evenodd" clip-rule="evenodd" d="M6 34.0002C6 49.4402 18.56 62.0002 34 62.0002C38.5891 62.0002 42.9237 60.8907 46.7498 58.9258C49.1395 56.5676 50.9104 53.5719 51.3346 50.666C52.2226 43.554 52.2226 36.446 51.3346 29.332C50.4966 23.596 44.4046 17.504 38.6666 16.666C35.1106 16.222 31.5546 16 28.0006 16C24.4446 16 20.8886 16.222 17.3346 16.666C14.4289 17.0904 11.4324 18.8621 9.07334 21.2526C7.10912 25.0781 6 29.412 6 34.0002ZM28.0006 56.364C34.1066 56.364 43.6546 48.036 44.7226 47.086C45.6226 46.286 45.7026 44.906 44.9046 44.006C44.1026 43.106 42.7246 43.024 41.8246 43.824C38.2646 46.984 31.3626 52 28.0006 52C24.6366 52 17.7366 46.984 14.1766 43.824C13.2746 43.024 11.8986 43.106 11.0966 44.006C10.2966 44.906 10.3766 46.286 11.2766 47.086C12.3466 48.036 21.8926 56.364 28.0006 56.364ZM21.4546 33.454C21.4546 31.646 19.9886 30.182 18.1806 30.182C16.3746 30.182 14.9106 31.646 14.9106 33.454C14.9106 35.262 16.3746 36.726 18.1806 36.726C19.9886 36.726 21.4546 35.262 21.4546 33.454ZM41.0906 33.454C41.0906 31.646 39.6246 30.182 37.8186 30.182C36.0126 30.182 34.5446 31.646 34.5446 33.454C34.5446 35.262 36.0126 36.726 37.8186 36.726C39.6246 36.726 41.0906 35.262 41.0906 33.454Z" fill="#202227"/>
        <path opacity="0.7" fill-rule="evenodd" clip-rule="evenodd" d="M72.168 4.292C74.446 1.746 77.486 0 81.818 0C87.478 0 91.316 2.926 91.316 8.13V8.208C91.316 13.222 87.82 15.31 83.49 16.146L83.072 18.73H79.194L78.322 12.308L78.512 12.122C83.49 11.93 85.504 10.562 85.504 8.36V8.284C85.504 6.422 84.098 5.282 81.702 5.282C79.424 5.282 77.486 6.23 75.662 8.092L72.168 4.292ZM83.9996 28.0008H77.9996V22.0008H83.9996V28.0008Z" fill="#202227"/>
        <path fill-rule="evenodd" clip-rule="evenodd" d="M34 62C18.56 62 6 49.44 6 34C6 18.56 18.56 6 34 6C49.44 6 62 18.56 62 34C62 49.44 49.44 62 34 62ZM60.508 55.266C65.186 49.44 68 42.052 68 34C68 15.222 52.778 0 34 0C15.222 0 0 15.222 0 34C0 52.778 15.222 68 34 68C41.116 68 47.712 65.808 53.172 62.072L69.93 78.828C71.88 80.782 75.046 80.782 77 78.828C78.954 76.874 78.954 73.71 77 71.758L60.508 55.266Z" fill="#202227"/>
    </g>
</svg>